<svg width="19" height="22" viewBox="0 0 19 22" fill="none" xmlns="http://www.w3.org/2000/svg">
<path d="M10.8772 1.8125V2.63281C13.9707 3.24804 16.3015 5.87304 16.3015 9.03125V9.81054C16.3015 11.7383 17.0218 13.625 18.3356 15.0605L18.6323 15.3887C19.0136 15.7988 19.0984 16.332 18.8865 16.8242C18.6746 17.2753 18.166 17.5625 17.6575 17.5625H1.38481C0.833909 17.5625 0.325387 17.2753 0.113516 16.8242C-0.0983766 16.332 -0.0136246 15.7988 0.367768 15.3887L0.664402 15.0605C1.97808 13.625 2.74087 11.7383 2.74087 9.81054V9.03125C2.74087 5.87304 5.02922 3.24804 8.16511 2.63281V1.8125C8.16511 1.11523 8.75838 0.5 9.52117 0.5C10.2416 0.5 10.8772 1.11523 10.8772 1.8125ZM9.52117 21.5C8.80076 21.5 8.08035 21.254 7.57185 20.7617C7.0633 20.2696 6.80905 19.5722 6.80905 18.875H12.2333C12.2333 19.5722 11.9367 20.2696 11.4281 20.7617C10.9196 21.254 10.1992 21.5 9.52117 21.5Z" fill="#0033FF"/>
</svg>
