<svg width="14" height="15" viewBox="0 0 14 15" fill="none" xmlns="http://www.w3.org/2000/svg">
<path d="M0 7.75C0 3.89453 3.11719 0.75 7 0.75C10.8555 0.75 14 3.89453 14 7.75C14 11.6328 10.8555 14.75 7 14.75C3.11719 14.75 0 11.6328 0 7.75ZM7 10.8125C7.35547 10.8125 7.65625 10.5391 7.65625 10.1562V8.40625H9.40625C9.76172 8.40625 10.0625 8.13281 10.0625 7.75C10.0625 7.39453 9.76172 7.09375 9.40625 7.09375H7.65625V5.34375C7.65625 4.98828 7.35547 4.6875 7 4.6875C6.61719 4.6875 6.34375 4.98828 6.34375 5.34375V7.09375H4.59375C4.21094 7.09375 3.9375 7.39453 3.9375 7.75C3.9375 8.13281 4.21094 8.40625 4.59375 8.40625H6.34375V10.1562C6.34375 10.5391 6.61719 10.8125 7 10.8125Z" fill="white"/>
</svg>
