<svg width="21" height="20" viewBox="0 0 21 20" fill="none" xmlns="http://www.w3.org/2000/svg">
<path d="M12.3761 10L15.7876 6.58852C16.2062 6.16989 16.2062 5.49114 15.7876 5.07216L15.0294 4.31398C14.6108 3.89534 13.932 3.89534 13.513 4.31398L10.1016 7.72545L6.69009 4.31398C6.27145 3.89534 5.5927 3.89534 5.17372 4.31398L4.41554 5.07216C3.9969 5.4908 3.9969 6.16955 4.41554 6.58852L7.82702 10L4.41554 13.4115C3.9969 13.8301 3.9969 14.5089 4.41554 14.9278L5.17372 15.686C5.59236 16.1047 6.27145 16.1047 6.69009 15.686L10.1016 12.2745L13.513 15.686C13.9317 16.1047 14.6108 16.1047 15.0294 15.686L15.7876 14.9278C16.2062 14.5092 16.2062 13.8305 15.7876 13.4115L12.3761 10Z" fill="white"/>
</svg>
