<svg width="14" height="12" viewBox="0 0 14 12" fill="none" xmlns="http://www.w3.org/2000/svg">
<path d="M2.43127 5.99609L6.7153 10.3114C7.12182 10.6867 7.12182 11.3433 6.7153 11.7186C6.52769 11.9062 6.27753 12 6.02736 12C5.74593 12 5.49576 11.9062 5.30815 11.7186L0.304887 6.7153C-0.101629 6.34006 -0.101629 5.68339 0.304887 5.30815L5.30815 0.304886C5.68339 -0.101629 6.34007 -0.101629 6.7153 0.304886C7.12182 0.68013 7.12182 1.3368 6.7153 1.71205L2.43127 5.99609ZM8.43518 5.99609L12.7192 10.3114C13.1257 10.6867 13.1257 11.3433 12.7192 11.7186C12.5316 11.9062 12.2814 12 12.0313 12C11.7498 12 11.4997 11.9062 11.3121 11.7186L6.3088 6.7153C5.90228 6.34006 5.90228 5.68339 6.3088 5.30815L11.3121 0.304886C11.6873 -0.101629 12.344 -0.101629 12.7192 0.304886C13.1257 0.68013 13.1257 1.3368 12.7192 1.71205L8.43518 5.99609Z" fill="#0033FF"/>
</svg>
