<svg width="14" height="15" viewBox="0 0 14 15" fill="none" xmlns="http://www.w3.org/2000/svg">
<path d="M13.125 10.375C13.5898 10.375 14 10.7852 14 11.25V13.875C14 14.3672 13.5898 14.75 13.125 14.75H0.875C0.382812 14.75 0 14.3672 0 13.875V11.25C0 10.7852 0.382812 10.375 0.875 10.375H4.51172L5.74219 11.6328C6.07031 11.9609 6.50781 12.125 7 12.125C7.46484 12.125 7.90234 11.9609 8.23047 11.6328L9.46094 10.375H13.125ZM11.8125 13.2188C12.168 13.2188 12.4688 12.9453 12.4688 12.5625C12.4688 12.207 12.168 11.9062 11.8125 11.9062C11.4297 11.9062 11.1562 12.207 11.1562 12.5625C11.1562 12.9453 11.4297 13.2188 11.8125 13.2188ZM6.37109 11.0039L2.87109 7.50391C2.51562 7.17578 2.51562 6.60156 2.87109 6.27344C3.19922 5.91797 3.77344 5.91797 4.10156 6.27344L6.125 8.26953V1.625C6.125 1.16016 6.50781 0.75 7 0.75C7.46484 0.75 7.875 1.16016 7.875 1.625V8.26953L9.87109 6.27344C10.1992 5.91797 10.7734 5.91797 11.1016 6.27344C11.457 6.60156 11.457 7.17578 11.1016 7.50391L7.60156 11.0039C7.4375 11.168 7.21875 11.25 7 11.25C6.75391 11.25 6.53516 11.168 6.37109 11.0039Z" fill="white"/>
</svg>
