<svg width="24" height="25" viewBox="0 0 24 25" fill="none" xmlns="http://www.w3.org/2000/svg">
<path d="M4 6.5L10 12.5M20 6.5L14 12.5M10 12.5L10.5858 13.0858C11.3668 13.8668 12.6332 13.8668 13.4142 13.0858L14 12.5M10 12.5L3.87868 18.6213M14 12.5L20.1213 18.6213M20.1213 18.6213C20.6642 18.0784 21 17.3284 21 16.5V7.5C21 6.39543 20.1046 5.5 19 5.5H5C3.89543 5.5 3 6.39543 3 7.5V16.5C3 17.3284 3.33579 18.0784 3.87868 18.6213M20.1213 18.6213C19.5784 19.1642 18.8284 19.5 18 19.5H6C5.17157 19.5 4.42157 19.1642 3.87868 18.6213" stroke="#6B7A99" stroke-width="1.5" stroke-linecap="round"/>
</svg>
