<svg width="24" height="24" viewBox="0 0 24 24" fill="none" xmlns="http://www.w3.org/2000/svg">
<path d="M11.4703 13.375C9.77812 13.375 8.38281 12.0274 8.4125 10.3281C8.4125 8.6582 9.77812 7.28125 11.4703 7.28125C13.1625 7.28125 14.5578 8.6582 14.5578 10.3281C14.5578 12.0274 13.1922 13.375 11.4703 13.375ZM12.9547 14.3125C15.3 14.3125 17.2 16.0703 17.2 18.2383C17.2 18.6778 16.814 19 16.339 19H6.63125C6.15625 19 5.8 18.6778 5.8 18.2383C5.8 16.0703 7.67031 14.3125 10.0156 14.3125H12.9547ZM17.2 8.6875C15.864 8.6875 14.825 7.66211 14.825 6.34375C14.825 5.05469 15.864 4 17.2 4C18.5062 4 19.575 5.05469 19.575 6.34375C19.575 7.66211 18.5062 8.6875 17.2 8.6875ZM7.43281 10.3281C7.43281 11.3242 7.81875 12.2324 8.44219 12.9062H2.50469C2.20781 12.9062 2 12.6719 2 12.3789C2 10.8555 3.15781 9.625 4.6125 9.625H6.42344C6.80938 9.625 7.16562 9.71289 7.49219 9.88867C7.4625 10.0352 7.43281 10.1816 7.43281 10.3281ZM5.8 8.6875C4.46406 8.6875 3.425 7.66211 3.425 6.34375C3.425 5.05469 4.46406 4 5.8 4C7.10625 4 8.175 5.05469 8.175 6.34375C8.175 7.66211 7.10625 8.6875 5.8 8.6875ZM18.3579 9.625C19.8125 9.625 21 10.8555 21 12.3789C21 12.6719 20.7625 12.9062 20.4656 12.9062H14.5281C15.1515 12.2324 15.5079 11.3242 15.5079 10.3281C15.5079 10.1816 15.4781 10.0352 15.4781 9.88867C15.8046 9.74219 16.161 9.625 16.5469 9.625H18.3579Z" fill="#0033FF"/>
</svg>
