<svg width="24" height="25" viewBox="0 0 24 25" fill="none" xmlns="http://www.w3.org/2000/svg">
<path d="M8 10.5V8.5C8 6.29086 9.79086 4.5 12 4.5C14.2091 4.5 16 6.29086 16 8.5V10.5M12 15.5C12.5523 15.5 13 15.0523 13 14.5C13 13.9477 12.5523 13.5 12 13.5C11.4477 13.5 11 13.9477 11 14.5C11 15.0523 11.4477 15.5 12 15.5ZM12 15.5V17.5M7 20.5H17C18.1046 20.5 19 19.6046 19 18.5V12.5C19 11.3954 18.1046 10.5 17 10.5H7C5.89543 10.5 5 11.3954 5 12.5V18.5C5 19.6046 5.89543 20.5 7 20.5Z" stroke="#6B7A99" stroke-width="1.5" stroke-linecap="round" stroke-linejoin="round"/>
</svg>
