<svg width="240" height="51" viewBox="0 0 240 51" fill="none" xmlns="http://www.w3.org/2000/svg">
<path fill-rule="evenodd" clip-rule="evenodd" d="M85.2135 1.04028C87.2356 1.04028 88.843 2.61168 88.843 4.65463C88.843 6.69183 87.229 8.26897 85.2135 8.26897C83.198 8.26897 81.584 6.69183 81.584 4.65463C81.584 2.61168 83.1915 1.04028 85.2135 1.04028Z" fill="#0033FF"/>
<path fill-rule="evenodd" clip-rule="evenodd" d="M83.5888 15.7686H76.1135V11.9924H88.2476V34.5956H96.1567V38.4256H74.8672V34.5956H83.5888V15.7686Z" fill="#0033FF"/>
<path fill-rule="evenodd" clip-rule="evenodd" d="M235.334 38.4256V18.4724C235.334 8.66512 225.631 16.4402 222.742 20.4684V38.4256H218.165V18.967C218.165 9.52114 207.574 17.4507 205.485 20.4684V38.4256H200.938V11.019H204.291L204.638 16.0449C207.023 12.6845 221.673 5.80839 221.673 16.2607C227.004 8.76768 239.999 7.39171 239.999 18.1938V38.4256H235.334Z" fill="#83D0F4"/>
<path fill-rule="evenodd" clip-rule="evenodd" d="M192.595 25.9105H186.754C183.485 25.9105 180.19 26.9066 180.19 30.7296C180.19 33.4146 182.111 34.5957 184.632 34.5957C187.508 34.5957 190.564 32.4485 192.595 30.5947V25.9105ZM193.092 38.4242L192.993 34.3889C190.428 36.9106 187.554 38.4258 183.892 38.4258C179.08 38.4258 175.314 36.2112 175.314 30.8914C175.314 24.2049 181.444 22.404 187.088 22.404H192.595V20.0843C192.595 16.3576 189.905 14.9055 186.483 14.9055C183.35 14.9055 180.426 15.693 177.536 16.8476V12.6939C180.431 11.6576 183.76 11.0215 186.835 11.0215C192.779 11.0215 197.2 13.4288 197.2 19.7157V38.4242H193.092Z" fill="#83D0F4"/>
<path fill-rule="evenodd" clip-rule="evenodd" d="M166.837 22.6737C167.04 18.2625 164.748 14.6898 159.903 14.6898C155.328 14.6898 153.169 18.6528 152.86 22.6737H166.837ZM171.604 23.3121C171.604 24.2706 171.585 25.2253 171.495 26.1802H152.86C152.86 31.8072 156.188 34.5957 161.699 34.5957C164.384 34.5957 167.608 34.199 170.195 33.4628V37.239C167.278 38.0541 164.066 38.4258 161.04 38.4258C152.252 38.4258 148.039 33.7228 148.039 24.7776C148.039 17.6283 152.228 11.0215 160.101 11.0215C167.827 11.0215 171.604 16.1696 171.604 23.3121Z" fill="#83D0F4"/>
<path fill-rule="evenodd" clip-rule="evenodd" d="M144.299 37.6703C142.175 38.2221 139.883 38.4254 137.69 38.4254C131.39 38.4254 127.786 35.7835 127.786 29.2548V15.8382H120.355V12.0317H127.786V4.74909L132.391 3.56226V12.0317H144.299V15.8382H132.391V28.8772C132.391 32.7925 134.567 34.5949 138.386 34.5949C140.358 34.5949 142.392 34.2724 144.299 33.7857V37.6703Z" fill="#83D0F4"/>
<path fill-rule="evenodd" clip-rule="evenodd" d="M52.8419 43.6775C53.4564 43.6775 53.9343 43.8864 54.275 44.3041C54.6144 44.7232 54.7847 45.315 54.7847 46.0793C54.7847 46.8451 54.6129 47.4396 54.2706 47.8632C53.9269 48.2867 53.4522 48.4985 52.8419 48.4985C52.5376 48.4985 52.2594 48.4419 52.0073 48.3302C51.7568 48.2185 51.5442 48.0459 51.3737 47.8139H51.3228L51.1728 48.4114H50.666V41.7979H51.3737V43.4048C51.3737 43.7645 51.3622 44.088 51.3403 44.3751H51.3737C51.7044 43.9096 52.1938 43.6775 52.8419 43.6775ZM52.7399 44.2693C52.2564 44.2693 51.9083 44.407 51.6943 44.6841C51.4801 44.9597 51.3737 45.4252 51.3737 46.0793C51.3737 46.7334 51.483 47.2019 51.7029 47.4832C51.9215 47.7661 52.2739 47.9067 52.7574 47.9067C53.1929 47.9067 53.5177 47.7486 53.7303 47.4324C53.9444 47.1177 54.0508 46.6638 54.0508 46.0706C54.0508 45.4644 53.9444 45.0132 53.7303 44.716C53.5177 44.4187 53.187 44.2693 52.7399 44.2693ZM58.8437 43.7559V46.7769C58.8437 47.1555 58.9296 47.4397 59.1044 47.6268C59.2777 47.8139 59.5501 47.9067 59.92 47.9067C60.4094 47.9067 60.7662 47.7733 60.9934 47.5079C61.2192 47.241 61.3328 46.8059 61.3328 46.2026V43.7559H62.0406V48.4114H61.4566L61.3546 47.7893H61.3152C61.1711 48.0184 60.9686 48.1939 60.7109 48.3157C60.4545 48.4375 60.1603 48.4985 59.8298 48.4985C59.2603 48.4985 58.835 48.3636 58.551 48.0952C58.2684 47.8255 58.1272 47.3947 58.1272 46.803V43.7559H58.8437ZM68.7153 47.1424C68.7153 47.5761 68.5523 47.9111 68.2289 48.146C67.904 48.381 67.4497 48.4985 66.8627 48.4985C66.2437 48.4985 65.7602 48.4013 65.4121 48.2055V47.55C65.6378 47.663 65.8782 47.753 66.136 47.8183C66.3937 47.8834 66.6414 47.9155 66.8802 47.9155C67.2502 47.9155 67.5342 47.856 67.7337 47.7384C67.9333 47.621 68.0323 47.4426 68.0323 47.2019C68.0323 47.0206 67.9536 46.8655 67.7948 46.7363C67.6376 46.6073 67.3303 46.4549 66.8715 46.2794C66.436 46.1169 66.1272 45.9763 65.9437 45.8559C65.7602 45.7356 65.6234 45.5993 65.5344 45.4455C65.4442 45.2932 65.4005 45.1104 65.4005 44.8973C65.4005 44.5173 65.5548 44.2184 65.865 43.998C66.1753 43.779 66.6005 43.6688 67.1409 43.6688C67.6434 43.6688 68.1357 43.7704 68.6162 43.9749L68.3643 44.5492C67.8953 44.3563 67.4701 44.2606 67.0899 44.2606C66.7535 44.2606 66.5 44.3127 66.3297 44.4172C66.1593 44.523 66.0734 44.6667 66.0734 44.8509C66.0734 44.9755 66.1054 45.0815 66.1695 45.1698C66.2336 45.2569 66.337 45.3411 66.4797 45.4208C66.621 45.4992 66.8948 45.6152 67.2982 45.7646C67.8531 45.9662 68.2274 46.1692 68.4226 46.3723C68.6178 46.5768 68.7153 46.8334 68.7153 47.1424ZM72.732 48.4114H72.0242V43.7559H72.732V48.4114ZM71.9645 42.4912C71.9645 42.3301 72.0039 42.2126 72.084 42.1372C72.164 42.0618 72.2631 42.0241 72.3825 42.0241C72.4961 42.0241 72.5951 42.0618 72.6767 42.1387C72.7597 42.2156 72.8004 42.333 72.8004 42.4912C72.8004 42.6507 72.7597 42.7696 72.6767 42.8464C72.5951 42.9249 72.4961 42.9639 72.3825 42.9639C72.2631 42.9639 72.164 42.9249 72.084 42.8464C72.0039 42.7696 71.9645 42.6507 71.9645 42.4912ZM79.5931 48.4114V45.3991C79.5931 45.0191 79.5073 44.7363 79.3324 44.5492C79.1591 44.362 78.8868 44.2693 78.5169 44.2693C78.0275 44.2693 77.6692 44.4012 77.442 44.6638C77.2134 44.9276 77.0997 45.3628 77.0997 45.9691V48.4114H76.3919V43.7559H76.9673L77.0823 44.3911H77.1173C77.2629 44.1619 77.4653 43.9835 77.7275 43.8574C77.9896 43.7312 78.281 43.6688 78.6028 43.6688C79.1665 43.6688 79.5902 43.8037 79.8742 44.075C80.1597 44.3447 80.301 44.7782 80.301 45.373V48.4114H79.5931ZM85.8878 48.4985C85.196 48.4985 84.6513 48.2882 84.2522 47.8691C83.8517 47.4499 83.6522 46.8668 83.6522 46.1213C83.6522 45.3701 83.8371 44.774 84.2086 44.3316C84.5799 43.8893 85.078 43.6688 85.7043 43.6688C86.2897 43.6688 86.7544 43.8602 87.0951 44.2446C87.436 44.629 87.6078 45.1351 87.6078 45.7631V46.2098H84.3862C84.4007 46.7566 84.5391 47.1713 84.8013 47.4556C85.0649 47.7384 85.4348 47.8806 85.914 47.8806C86.4165 47.8806 86.9145 47.7762 87.4069 47.5658V48.1953C87.1564 48.3041 86.9189 48.381 86.6961 48.4289C86.4733 48.4753 86.2038 48.4985 85.8878 48.4985ZM85.6955 44.2606C85.3198 44.2606 85.0212 44.3824 84.7984 44.626C84.5741 44.8682 84.4429 45.2048 84.4037 45.6355H86.8476C86.8476 45.1917 86.7485 44.8509 86.549 44.6145C86.3494 44.378 86.0655 44.2606 85.6955 44.2606ZM93.9883 47.1424C93.9883 47.5761 93.8252 47.9111 93.5019 48.146C93.1771 48.381 92.7227 48.4985 92.1358 48.4985C91.5168 48.4985 91.0332 48.4013 90.6852 48.2055V47.55C90.9109 47.663 91.1513 47.753 91.4089 47.8183C91.6668 47.8834 91.9144 47.9155 92.1532 47.9155C92.5232 47.9155 92.8071 47.856 93.0068 47.7384C93.2063 47.621 93.3053 47.4426 93.3053 47.2019C93.3053 47.0206 93.2266 46.8655 93.0679 46.7363C92.9106 46.6073 92.6033 46.4549 92.1445 46.2794C91.7091 46.1169 91.4003 45.9763 91.2168 45.8559C91.0332 45.7356 90.8964 45.5993 90.8075 45.4455C90.7172 45.2932 90.6734 45.1104 90.6734 44.8973C90.6734 44.5173 90.8279 44.2184 91.1381 43.998C91.4483 43.779 91.8736 43.6688 92.4139 43.6688C92.9164 43.6688 93.4087 43.7704 93.8893 43.9749L93.6374 44.5492C93.1683 44.3563 92.7431 44.2606 92.363 44.2606C92.0265 44.2606 91.7731 44.3127 91.6027 44.4172C91.4323 44.523 91.3464 44.6667 91.3464 44.8509C91.3464 44.9755 91.3784 45.0815 91.4425 45.1698C91.5066 45.2569 91.6101 45.3411 91.7527 45.4208C91.8939 45.4992 92.1678 45.6152 92.5713 45.7646C93.1261 45.9662 93.5005 46.1692 93.6957 46.3723C93.8908 46.5768 93.9883 46.8334 93.9883 47.1424ZM100.314 47.1424C100.314 47.5761 100.15 47.9111 99.8271 48.146C99.5022 48.381 99.0479 48.4985 98.4609 48.4985C97.8419 48.4985 97.3584 48.4013 97.0103 48.2055V47.55C97.236 47.663 97.4764 47.753 97.7342 47.8183C97.992 47.8834 98.2396 47.9155 98.4784 47.9155C98.8484 47.9155 99.1324 47.856 99.3319 47.7384C99.5314 47.621 99.6305 47.4426 99.6305 47.2019C99.6305 47.0206 99.5518 46.8655 99.393 46.7363C99.2358 46.6073 98.9285 46.4549 98.4697 46.2794C98.0342 46.1169 97.7254 45.9763 97.5419 45.8559C97.3584 45.7356 97.2216 45.5993 97.1326 45.4455C97.0424 45.2932 96.9987 45.1104 96.9987 44.8973C96.9987 44.5173 97.153 44.2184 97.4632 43.998C97.7735 43.779 98.1987 43.6688 98.7391 43.6688C99.2416 43.6688 99.7339 43.7704 100.214 43.9749L99.9625 44.5492C99.4935 44.3563 99.0683 44.2606 98.6881 44.2606C98.3517 44.2606 98.0982 44.3127 97.9279 44.4172C97.7575 44.523 97.6715 44.6667 97.6715 44.8509C97.6715 44.9755 97.7036 45.0815 97.7677 45.1698C97.8317 45.2569 97.9352 45.3411 98.0779 45.4208C98.2192 45.4992 98.493 45.6152 98.8964 45.7646C99.4513 45.9662 99.8256 46.1692 100.021 46.3723C100.216 46.5768 100.314 46.8334 100.314 47.1424ZM113.45 47.1424C113.45 47.5761 113.287 47.9111 112.964 48.146C112.639 48.381 112.185 48.4985 111.598 48.4985C110.979 48.4985 110.495 48.4013 110.147 48.2055V47.55C110.373 47.663 110.613 47.753 110.871 47.8183C111.129 47.8834 111.376 47.9155 111.615 47.9155C111.985 47.9155 112.269 47.856 112.469 47.7384C112.668 47.621 112.767 47.4426 112.767 47.2019C112.767 47.0206 112.689 46.8655 112.53 46.7363C112.373 46.6073 112.065 46.4549 111.606 46.2794C111.171 46.1169 110.862 45.9763 110.679 45.8559C110.495 45.7356 110.358 45.5993 110.269 45.4455C110.179 45.2932 110.135 45.1104 110.135 44.8973C110.135 44.5173 110.29 44.2184 110.6 43.998C110.91 43.779 111.336 43.6688 111.876 43.6688C112.378 43.6688 112.871 43.7704 113.351 43.9749L113.099 44.5492C112.63 44.3563 112.205 44.2606 111.825 44.2606C111.489 44.2606 111.235 44.3127 111.065 44.4172C110.894 44.523 110.808 44.6667 110.808 44.8509C110.808 44.9755 110.84 45.0815 110.904 45.1698C110.969 45.2569 111.072 45.3411 111.215 45.4208C111.356 45.4992 111.63 45.6152 112.033 45.7646C112.588 45.9662 112.962 46.1692 113.158 46.3723C113.353 46.5768 113.45 46.8334 113.45 47.1424ZM116.016 43.7559H116.775L117.801 46.41C118.025 47.0162 118.165 47.4542 118.219 47.7226H118.252C118.29 47.5775 118.367 47.331 118.485 46.9814C118.603 46.6319 118.989 45.5571 119.644 43.7559H120.403L118.393 49.0554C118.194 49.5804 117.962 49.9517 117.696 50.1707C117.429 50.3897 117.103 50.4999 116.715 50.4999C116.5 50.4999 116.286 50.4752 116.076 50.4289V49.8662C116.232 49.8995 116.407 49.917 116.6 49.917C117.087 49.917 117.435 49.6442 117.642 49.1018L117.903 48.4375L116.016 43.7559ZM126.335 47.1424C126.335 47.5761 126.172 47.9111 125.849 48.146C125.524 48.381 125.07 48.4985 124.483 48.4985C123.864 48.4985 123.38 48.4013 123.032 48.2055V47.55C123.258 47.663 123.498 47.753 123.756 47.8183C124.014 47.8834 124.261 47.9155 124.5 47.9155C124.87 47.9155 125.154 47.856 125.354 47.7384C125.553 47.621 125.652 47.4426 125.652 47.2019C125.652 47.0206 125.573 46.8655 125.415 46.7363C125.257 46.6073 124.95 46.4549 124.491 46.2794C124.056 46.1169 123.747 45.9763 123.564 45.8559C123.38 45.7356 123.243 45.5993 123.154 45.4455C123.064 45.2932 123.02 45.1104 123.02 44.8973C123.02 44.5173 123.175 44.2184 123.485 43.998C123.795 43.779 124.22 43.6688 124.761 43.6688C125.263 43.6688 125.755 43.7704 126.236 43.9749L125.984 44.5492C125.515 44.3563 125.09 44.2606 124.71 44.2606C124.373 44.2606 124.12 44.3127 123.949 44.4172C123.779 44.523 123.693 44.6667 123.693 44.8509C123.693 44.9755 123.725 45.0815 123.789 45.1698C123.853 45.2569 123.957 45.3411 124.099 45.4208C124.241 45.4992 124.515 45.6152 124.918 45.7646C125.473 45.9662 125.847 46.1692 126.042 46.3723C126.238 46.5768 126.335 46.8334 126.335 47.1424ZM131.154 47.9155C131.28 47.9155 131.4 47.9065 131.517 47.8879C131.634 47.8691 131.725 47.8501 131.794 47.8299V48.3708C131.716 48.4071 131.604 48.4375 131.454 48.4622C131.306 48.4868 131.17 48.4985 131.051 48.4985C130.146 48.4985 129.695 48.0242 129.695 47.0742V44.3041H129.025V43.9647L129.695 43.6703L129.994 42.6768H130.403V43.7559H131.76V44.3041H130.403V47.0438C130.403 47.3252 130.47 47.5398 130.604 47.6906C130.738 47.84 130.921 47.9155 131.154 47.9155ZM136.861 48.4985C136.169 48.4985 135.624 48.2882 135.225 47.8691C134.824 47.4499 134.625 46.8668 134.625 46.1213C134.625 45.3701 134.81 44.774 135.181 44.3316C135.553 43.8893 136.051 43.6688 136.677 43.6688C137.262 43.6688 137.727 43.8602 138.068 44.2446C138.409 44.629 138.581 45.1351 138.581 45.7631V46.2098H135.359C135.374 46.7566 135.512 47.1713 135.774 47.4556C136.038 47.7384 136.408 47.8806 136.887 47.8806C137.389 47.8806 137.887 47.7762 138.38 47.5658V48.1953C138.129 48.3041 137.892 48.381 137.669 48.4289C137.446 48.4753 137.177 48.4985 136.861 48.4985ZM136.668 44.2606C136.292 44.2606 135.994 44.3824 135.771 44.626C135.547 44.8682 135.416 45.2048 135.377 45.6355H137.82C137.82 45.1917 137.721 44.8509 137.522 44.6145C137.322 44.378 137.038 44.2606 136.668 44.2606ZM147.903 48.4114V45.3816C147.903 45.0118 147.824 44.7334 147.664 44.5477C147.505 44.362 147.258 44.2693 146.923 44.2693C146.482 44.2693 146.157 44.3955 145.946 44.6478C145.736 44.9002 145.63 45.2874 145.63 45.811V48.4114H144.922V45.3816C144.922 45.0118 144.842 44.7334 144.683 44.5477C144.524 44.362 144.275 44.2693 143.936 44.2693C143.493 44.2693 143.168 44.4012 142.961 44.6667C142.756 44.9306 142.653 45.3657 142.653 45.9691V48.4114H141.945V43.7559H142.52L142.635 44.3911H142.67C142.803 44.1648 142.992 43.9879 143.235 43.8602C143.478 43.7327 143.751 43.6688 144.052 43.6688C144.782 43.6688 145.261 43.9327 145.485 44.4592H145.519C145.659 44.2155 145.861 44.0227 146.125 43.8806C146.39 43.7399 146.691 43.6688 147.029 43.6688C147.558 43.6688 147.954 43.8037 148.218 44.075C148.48 44.3447 148.612 44.7782 148.612 45.373V48.4114H147.903ZM155.105 48.4114L154.964 47.7487H154.929C154.696 48.0402 154.464 48.2388 154.233 48.3433C154 48.4463 153.711 48.4985 153.365 48.4985C152.9 48.4985 152.537 48.3796 152.274 48.1416C152.012 47.9024 151.879 47.5644 151.879 47.1235C151.879 46.1823 152.635 45.6891 154.144 45.6442L154.938 45.6181V45.3295C154.938 44.9654 154.859 44.6956 154.702 44.5216C154.543 44.3475 154.291 44.2606 153.944 44.2606C153.554 44.2606 153.114 44.3795 152.622 44.6174L152.405 44.0779C152.635 43.9531 152.887 43.8545 153.161 43.7835C153.436 43.7123 153.711 43.6775 153.986 43.6775C154.544 43.6775 154.956 43.8007 155.226 44.0473C155.495 44.2939 155.629 44.6884 155.629 45.2322V48.4114H155.105ZM153.504 47.9155C153.946 47.9155 154.292 47.7951 154.543 47.5543C154.795 47.3135 154.922 46.977 154.922 46.5434V46.1228L154.212 46.1533C153.65 46.1721 153.244 46.2592 152.995 46.4143C152.746 46.5681 152.622 46.8088 152.622 47.1338C152.622 47.389 152.699 47.5833 152.855 47.7153C153.009 47.8487 153.226 47.9155 153.504 47.9155ZM160.757 47.9155C160.883 47.9155 161.003 47.9065 161.12 47.8879C161.236 47.8691 161.328 47.8501 161.397 47.8299V48.3708C161.32 48.4071 161.207 48.4375 161.057 48.4622C160.909 48.4868 160.773 48.4985 160.654 48.4985C159.749 48.4985 159.298 48.0242 159.298 47.0742V44.3041H158.628V43.9647L159.298 43.6703L159.597 42.6768H160.006V43.7559H161.363V44.3041H160.006V47.0438C160.006 47.3252 160.073 47.5398 160.207 47.6906C160.341 47.84 160.524 47.9155 160.757 47.9155ZM165.196 48.4114H164.489V43.7559H165.196V48.4114ZM164.429 42.4912C164.429 42.3301 164.468 42.2126 164.548 42.1372C164.628 42.0618 164.727 42.0241 164.847 42.0241C164.961 42.0241 165.06 42.0618 165.141 42.1387C165.224 42.2156 165.265 42.333 165.265 42.4912C165.265 42.6507 165.224 42.7696 165.141 42.8464C165.06 42.9249 164.961 42.9639 164.847 42.9639C164.727 42.9639 164.628 42.9249 164.548 42.8464C164.468 42.7696 164.429 42.6507 164.429 42.4912ZM171.849 48.4114H168.454V47.9313L171.007 44.3041H168.613V43.7559H171.785V44.3041L169.266 47.8632H171.849V48.4114ZM177.976 48.4114L177.835 47.7487H177.8C177.567 48.0402 177.336 48.2388 177.104 48.3433C176.871 48.4463 176.583 48.4985 176.236 48.4985C175.771 48.4985 175.409 48.3796 175.145 48.1416C174.883 47.9024 174.75 47.5644 174.75 47.1235C174.75 46.1823 175.506 45.6891 177.015 45.6442L177.809 45.6181V45.3295C177.809 44.9654 177.73 44.6956 177.573 44.5216C177.414 44.3475 177.162 44.2606 176.816 44.2606C176.425 44.2606 175.985 44.3795 175.493 44.6174L175.276 44.0779C175.506 43.9531 175.758 43.8545 176.032 43.7835C176.307 43.7123 176.583 43.6775 176.858 43.6775C177.416 43.6775 177.828 43.8007 178.097 44.0473C178.367 44.2939 178.501 44.6884 178.501 45.2322V48.4114H177.976ZM176.376 47.9155C176.817 47.9155 177.164 47.7951 177.414 47.5543C177.666 47.3135 177.793 46.977 177.793 46.5434V46.1228L177.084 46.1533C176.521 46.1721 176.115 46.2592 175.866 46.4143C175.617 46.5681 175.493 46.8088 175.493 47.1338C175.493 47.389 175.57 47.5833 175.726 47.7153C175.881 47.8487 176.098 47.9155 176.376 47.9155ZM183.629 47.9155C183.754 47.9155 183.875 47.9065 183.991 47.8879C184.108 47.8691 184.2 47.8501 184.268 47.8299V48.3708C184.191 48.4071 184.079 48.4375 183.929 48.4622C183.78 48.4868 183.645 48.4985 183.525 48.4985C182.621 48.4985 182.169 48.0242 182.169 47.0742V44.3041H181.499V43.9647L182.169 43.6703L182.468 42.6768H182.877V43.7559H184.235V44.3041H182.877V47.0438C182.877 47.3252 182.944 47.5398 183.078 47.6906C183.212 47.84 183.396 47.9155 183.629 47.9155ZM188.068 48.4114H187.36V43.7559H188.068V48.4114ZM187.3 42.4912C187.3 42.3301 187.34 42.2126 187.42 42.1372C187.5 42.0618 187.599 42.0241 187.718 42.0241C187.832 42.0241 187.931 42.0618 188.012 42.1387C188.096 42.2156 188.136 42.333 188.136 42.4912C188.136 42.6507 188.096 42.7696 188.012 42.8464C187.931 42.9249 187.832 42.9639 187.718 42.9639C187.599 42.9639 187.5 42.9249 187.42 42.8464C187.34 42.7696 187.3 42.6507 187.3 42.4912ZM195.763 46.0793C195.763 46.8392 195.571 47.4324 195.188 47.8588C194.804 48.2853 194.274 48.4985 193.596 48.4985C193.178 48.4985 192.807 48.4013 192.482 48.2055C192.159 48.0097 191.908 47.7283 191.732 47.3629C191.554 46.9974 191.467 46.5695 191.467 46.0793C191.467 45.3193 191.658 44.7275 192.039 44.3041C192.42 43.8806 192.95 43.6688 193.625 43.6688C194.281 43.6688 194.799 43.8849 195.185 44.3186C195.571 44.7522 195.763 45.3396 195.763 46.0793ZM192.201 46.0793C192.201 46.6739 192.321 47.1279 192.559 47.4396C192.798 47.7515 193.149 47.9067 193.614 47.9067C194.077 47.9067 194.429 47.7515 194.67 47.4412C194.91 47.1308 195.029 46.6769 195.029 46.0793C195.029 45.4875 194.91 45.0379 194.67 44.7304C194.429 44.423 194.074 44.2693 193.605 44.2693C193.14 44.2693 192.791 44.4201 192.555 44.7232C192.319 45.0263 192.201 45.4788 192.201 46.0793ZM202.364 48.4114V45.3991C202.364 45.0191 202.278 44.7363 202.103 44.5492C201.93 44.362 201.657 44.2693 201.288 44.2693C200.798 44.2693 200.44 44.4012 200.213 44.6638C199.984 44.9276 199.87 45.3628 199.87 45.9691V48.4114H199.163V43.7559H199.738L199.853 44.3911H199.888C200.034 44.1619 200.236 43.9835 200.498 43.8574C200.76 43.7312 201.052 43.6688 201.374 43.6688C201.937 43.6688 202.361 43.8037 202.645 44.075C202.93 44.3447 203.072 44.7782 203.072 45.373V48.4114H202.364ZM215.005 47.9155C215.131 47.9155 215.252 47.9065 215.368 47.8879C215.485 47.8691 215.576 47.8501 215.645 47.8299V48.3708C215.568 48.4071 215.455 48.4375 215.305 48.4622C215.157 48.4868 215.021 48.4985 214.902 48.4985C213.998 48.4985 213.546 48.0242 213.546 47.0742V44.3041H212.876V43.9647L213.546 43.6703L213.845 42.6768H214.254V43.7559H215.611V44.3041H214.254V47.0438C214.254 47.3252 214.321 47.5398 214.455 47.6906C214.589 47.84 214.772 47.9155 215.005 47.9155ZM220.712 48.4985C220.02 48.4985 219.475 48.2882 219.076 47.8691C218.676 47.4499 218.476 46.8668 218.476 46.1213C218.476 45.3701 218.661 44.774 219.032 44.3316C219.404 43.8893 219.902 43.6688 220.528 43.6688C221.114 43.6688 221.578 43.8602 221.919 44.2446C222.26 44.629 222.432 45.1351 222.432 45.7631V46.2098H219.21C219.225 46.7566 219.363 47.1713 219.625 47.4556C219.889 47.7384 220.259 47.8806 220.738 47.8806C221.24 47.8806 221.738 47.7762 222.231 47.5658V48.1953C221.98 48.3041 221.743 48.381 221.52 48.4289C221.297 48.4753 221.028 48.4985 220.712 48.4985ZM220.519 44.2606C220.144 44.2606 219.845 44.3824 219.622 44.626C219.398 44.8682 219.267 45.2048 219.228 45.6355H221.671C221.671 45.1917 221.572 44.8509 221.373 44.6145C221.173 44.378 220.889 44.2606 220.519 44.2606ZM228.671 48.4114L228.53 47.7487H228.495C228.262 48.0402 228.03 48.2388 227.799 48.3433C227.566 48.4463 227.277 48.4985 226.931 48.4985C226.466 48.4985 226.103 48.3796 225.84 48.1416C225.578 47.9024 225.445 47.5644 225.445 47.1235C225.445 46.1823 226.201 45.6891 227.71 45.6442L228.504 45.6181V45.3295C228.504 44.9654 228.425 44.6956 228.268 44.5216C228.109 44.3475 227.857 44.2606 227.51 44.2606C227.12 44.2606 226.68 44.3795 226.188 44.6174L225.971 44.0779C226.201 43.9531 226.453 43.8545 226.727 43.7835C227.002 43.7123 227.277 43.6775 227.552 43.6775C228.11 43.6775 228.522 43.8007 228.792 44.0473C229.061 44.2939 229.195 44.6884 229.195 45.2322V48.4114H228.671ZM227.07 47.9155C227.512 47.9155 227.858 47.7951 228.109 47.5543C228.361 47.3135 228.487 46.977 228.487 46.5434V46.1228L227.778 46.1533C227.216 46.1721 226.81 46.2592 226.561 46.4143C226.312 46.5681 226.188 46.8088 226.188 47.1338C226.188 47.389 226.265 47.5833 226.421 47.7153C226.575 47.8487 226.792 47.9155 227.07 47.9155ZM238.771 48.4114V45.3816C238.771 45.0118 238.693 44.7334 238.532 44.5477C238.374 44.362 238.126 44.2693 237.791 44.2693C237.35 44.2693 237.025 44.3955 236.814 44.6478C236.604 44.9002 236.498 45.2874 236.498 45.811V48.4114H235.79V45.3816C235.79 45.0118 235.71 44.7334 235.551 44.5477C235.392 44.362 235.143 44.2693 234.804 44.2693C234.361 44.2693 234.036 44.4012 233.83 44.6667C233.624 44.9306 233.521 45.3657 233.521 45.9691V48.4114H232.813V43.7559H233.388L233.503 44.3911H233.538C233.671 44.1648 233.86 43.9879 234.103 43.8602C234.347 43.7327 234.619 43.6688 234.92 43.6688C235.65 43.6688 236.129 43.9327 236.354 44.4592H236.387C236.527 44.2155 236.729 44.0227 236.993 43.8806C237.258 43.7399 237.56 43.6688 237.897 43.6688C238.426 43.6688 238.822 43.8037 239.086 44.075C239.348 44.3447 239.48 44.7782 239.48 45.373V48.4114H238.771Z" fill="#0033FF"/>
<path fill-rule="evenodd" clip-rule="evenodd" d="M57.9058 15.7991L73.6227 15.799V11.9924H57.9058C53.7144 11.9924 50.3164 15.3762 50.3164 19.5503C50.3164 23.7242 53.7143 27.1081 57.9058 27.108H66.0951C68.1767 27.1079 69.8644 28.7881 69.8644 30.8612C69.8644 32.9341 68.1768 34.6189 66.0953 34.6189L50.6717 34.619V38.4256H66.0953C70.2868 38.4256 73.6849 35.0419 73.6849 30.8678C73.6849 26.6938 70.2868 23.31 66.0953 23.31L57.9061 23.3101C55.8244 23.3101 54.1368 21.63 54.1368 19.5569C54.1368 17.4839 55.8242 15.7991 57.9058 15.7991Z" fill="#0033FF"/>
<path fill-rule="evenodd" clip-rule="evenodd" d="M21.5962 0.5L42.5671 12.5571L31.7828 18.7574L43.1903 25.3308V37.0294L0.625 12.5572L21.5962 0.5Z" fill="#83D0F4"/>
<path fill-rule="evenodd" clip-rule="evenodd" d="M21.5959 50.1615L0.625105 38.1042L11.3886 31.916L0.00215831 25.3694L0.00195312 13.6321L42.5669 38.1043L21.5959 50.1615Z" fill="#0033FF"/>
<path fill-rule="evenodd" clip-rule="evenodd" d="M34.2754 18.7573L43.1901 23.8605L43.1891 13.6311L34.2754 18.7573Z" fill="#0033FF"/>
<path fill-rule="evenodd" clip-rule="evenodd" d="M8.8956 31.9159L0 37.0292L0.00139071 26.8008L8.8956 31.9159Z" fill="#83D0F4"/>
<path fill-rule="evenodd" clip-rule="evenodd" d="M104.636 15.8387L120.353 15.8386V12.032H104.636C100.445 12.032 97.0469 15.4157 97.0469 19.5897C97.0469 23.7638 100.445 27.1476 104.636 27.1475L112.826 27.1474C114.907 27.1474 116.595 28.8276 116.595 30.9007C116.595 32.9736 114.907 34.6585 112.826 34.6585L97.4023 34.6586V38.4652H112.826C117.017 38.4652 120.415 35.0815 120.415 30.9074C120.415 26.7334 117.017 23.3496 112.826 23.3496L104.637 23.3497C102.555 23.3497 100.867 21.6696 100.867 19.5965C100.867 17.5235 102.555 15.8387 104.636 15.8387Z" fill="#0033FF"/>
</svg>
