<svg width="64" height="64" viewBox="0 0 64 64" fill="none" xmlns="http://www.w3.org/2000/svg">
<rect width="64" height="64" rx="32" fill="#FAD7D6"/>
<path d="M30.4133 33.8242C34.0617 33.8242 37.0261 36.7886 37.0261 40.4371C37.0261 41.1592 36.4181 41.7292 35.696 41.7292H21.2922C20.5701 41.7292 20 41.1592 20 40.4371C20 36.7886 22.9264 33.8242 26.5748 33.8242H30.4133ZM28.5131 32C25.8147 32 23.6485 29.8337 23.6485 27.1354C23.6485 24.475 25.8147 22.2708 28.5131 22.2708C31.1734 22.2708 33.3777 24.475 33.3777 27.1354C33.3777 29.8337 31.1734 32 28.5131 32ZM41.9288 30.7838L43.715 32.57C44.095 32.9501 44.095 33.5202 43.715 33.8622C43.3729 34.2423 42.8029 34.2423 42.4608 33.8622L40.6746 32.076L38.8504 33.9002C38.5083 34.2423 37.9383 34.2423 37.5962 33.9002C37.2162 33.5202 37.2162 32.9501 37.5962 32.6081L39.3825 30.8218L37.5962 29.0356C37.2162 28.6556 37.2162 28.0855 37.5962 27.7434C37.9383 27.3634 38.5083 27.3634 38.8504 27.7434L40.6746 29.5297L42.4228 27.7054C42.8029 27.3254 43.3729 27.3254 43.715 27.7054C44.095 28.0475 44.095 28.6176 43.715 28.9976L41.9288 30.7838Z" fill="#FF3B30"/>
</svg>
