<svg width="158" height="36" viewBox="0 0 158 36" fill="none" xmlns="http://www.w3.org/2000/svg">
<g clip-path="url(#clip0_593_8234)">
<mask id="mask0_593_8234" style="mask-type:luminance" maskUnits="userSpaceOnUse" x="0" y="0" width="158" height="36">
<path d="M157.807 0H0V36H157.807V0Z" fill="white"/>
</mask>
<g mask="url(#mask0_593_8234)">
<path d="M13.6324 36.0001C14.6019 36.0001 15.3878 35.2154 15.3878 34.2477C15.3878 33.2799 14.6019 32.4954 13.6324 32.4954C12.6629 32.4954 11.877 33.2799 11.877 34.2477C11.877 35.2154 12.6629 36.0001 13.6324 36.0001Z" fill="white"/>
<path d="M18.3863 32.9769C19.3558 32.9769 20.1418 32.1923 20.1418 31.2245C20.1418 30.2567 19.3558 29.4722 18.3863 29.4722C17.4168 29.4722 16.6309 30.2567 16.6309 31.2245C16.6309 32.1923 17.4168 32.9769 18.3863 32.9769Z" fill="white"/>
<path d="M25.1827 19.6756C26.1465 19.6756 26.9279 18.8956 26.9279 17.9335C26.9279 16.9713 26.1465 16.1914 25.1827 16.1914C24.2188 16.1914 23.4375 16.9713 23.4375 17.9335C23.4375 18.8956 24.2188 19.6756 25.1827 19.6756Z" fill="white"/>
<path d="M22.2242 15.3509C23.1937 15.3509 23.9796 14.5663 23.9796 13.5985C23.9796 12.6307 23.1937 11.8462 22.2242 11.8462C21.2547 11.8462 20.4688 12.6307 20.4688 13.5985C20.4688 14.5663 21.2547 15.3509 22.2242 15.3509Z" fill="white"/>
<path d="M18.3863 6.41508C19.3558 6.41508 20.1418 5.63054 20.1418 4.66276C20.1418 3.69494 19.3558 2.9104 18.3863 2.9104C17.4168 2.9104 16.6309 3.69494 16.6309 4.66276C16.6309 5.63054 17.4168 6.41508 18.3863 6.41508Z" fill="white"/>
<path d="M13.6324 3.5047C14.6019 3.5047 15.3878 2.72014 15.3878 1.75235C15.3878 0.784554 14.6019 0 13.6324 0C12.6629 0 11.877 0.784554 11.877 1.75235C11.877 2.72014 12.6629 3.5047 13.6324 3.5047Z" fill="white"/>
<path d="M1.75545 7.28619C2.72495 7.28619 3.51089 6.50164 3.51089 5.53382C3.51089 4.56604 2.72495 3.78149 1.75545 3.78149C0.785939 3.78149 0 4.56604 0 5.53382C0 6.50164 0.785939 7.28619 1.75545 7.28619Z" fill="white"/>
<path d="M2.69881 20.0855C3.6683 20.0855 4.45424 19.301 4.45424 18.3331C4.45424 17.3654 3.6683 16.5808 2.69881 16.5808C1.7293 16.5808 0.943359 17.3654 0.943359 18.3331C0.943359 19.301 1.7293 20.0855 2.69881 20.0855Z" fill="white"/>
<path d="M2.70026 27.2178C3.6641 27.2178 4.44543 26.4379 4.44543 25.4757C4.44543 24.5136 3.6641 23.7336 2.70026 23.7336C1.73642 23.7336 0.955078 24.5136 0.955078 25.4757C0.955078 26.4379 1.73642 27.2178 2.70026 27.2178Z" fill="white"/>
<path d="M7.82184 32.4852C8.79133 32.4852 9.57726 31.7006 9.57726 30.7328C9.57726 29.765 8.79133 28.9805 7.82184 28.9805C6.85234 28.9805 6.06641 29.765 6.06641 30.7328C6.06641 31.7006 6.85234 32.4852 7.82184 32.4852Z" fill="white"/>
<path d="M10.6564 18.5995C11.3236 17.9027 12.4529 17.9027 13.1201 18.5995C13.7977 19.2656 13.7977 20.3826 13.1201 21.0487C12.4529 21.7558 11.3236 21.7558 10.6564 21.0487C9.9583 20.3724 9.9583 19.2656 10.6564 18.5995Z" fill="white"/>
<path d="M14.4033 34.5346H12.8942V29.3698L6.36523 22.8728V14.5209L12.8532 8.07516V1.62939H14.3623V8.70028L7.89481 15.1665V22.2477L14.4033 28.7447V34.5346Z" fill="white"/>
<path d="M14.1756 29.5849L13.0977 28.5294L17.2245 24.3996V18.1588L13.3338 14.2544L17.6454 9.96064V4.6626H19.1442V10.596L15.4896 14.2544L18.7541 17.5132V25.0452L14.1756 29.5849Z" fill="white"/>
<path d="M17.7102 25.005L12.3458 19.6501L11.2715 20.7226L16.6358 26.0774L17.7102 25.005Z" fill="white"/>
<path d="M6.58067 15.0435L0.996094 9.45857V5.53369H2.51543V8.83346L7.66885 13.9573L6.58067 15.0435Z" fill="white"/>
<path d="M22.7791 14.1662L21.7148 13.0837L17.4434 17.2688L18.5076 18.3512L22.7791 14.1662Z" fill="white"/>
<path d="M7.67808 22.0134L3.2401 17.6033L2.14648 18.6999L6.58444 23.11L7.67808 22.0134Z" fill="white"/>
<path d="M18.8377 31.7678L17.7598 30.6816L21.4965 26.9719V20.5364L24.6378 17.3699L25.726 18.4561L23.0056 21.1513V27.597L18.8377 31.7678Z" fill="white"/>
<path d="M8.37268 30.1992L3.24063 25.0762L2.14453 26.1703L7.27658 31.2933L8.37268 30.1992Z" fill="white"/>
<path d="M42.5725 3.40723C44.2584 3.40723 45.6189 3.89164 46.6529 4.86048C47.6873 5.82931 48.2047 7.11993 48.2047 8.73231C48.2047 10.3447 47.6944 11.6317 46.6744 12.5935C45.6542 13.5553 44.287 14.0362 42.5725 14.0362H38.5133V18.3641C38.5133 18.5621 38.4389 18.7354 38.29 18.8839C38.1413 19.0324 37.9677 19.1067 37.7694 19.1067H36.154C35.9557 19.1067 35.7821 19.0324 35.6334 18.8839C35.4848 18.7354 35.4102 18.5621 35.4102 18.3641V11.7873C35.4102 11.5893 35.4848 11.4161 35.6334 11.2676C35.7821 11.1191 35.9557 11.0448 36.154 11.0448H42.445C43.3942 11.0448 44.0743 10.8397 44.4852 10.4295C44.8962 10.0618 45.1016 9.50314 45.1016 8.75354C45.1016 8.0039 44.8892 7.42755 44.4641 7.02445C44.039 6.62138 43.366 6.41983 42.445 6.41983H36.154C35.9557 6.41983 35.7821 6.34558 35.6334 6.19705C35.4848 6.04855 35.4102 5.8753 35.4102 5.6773V4.14976C35.4102 3.95176 35.4848 3.77851 35.6334 3.62997C35.7821 3.48148 35.9557 3.40723 36.154 3.40723H42.5725ZM60.3825 12.9754L63.5494 17.8338C63.6201 17.9469 63.6589 18.0742 63.6659 18.2156C63.6733 18.3571 63.6448 18.4844 63.5811 18.5975C63.5173 18.7107 63.4254 18.8026 63.3049 18.8733C63.1845 18.944 63.0605 18.9794 62.9327 18.9794H61.02C60.8925 18.9794 60.772 18.9476 60.6586 18.8839C60.5456 18.8203 60.4603 18.7389 60.4036 18.6399L57.2157 13.5695H53.454V18.2368C53.454 18.4349 53.3797 18.6081 53.2307 18.7566C53.0821 18.9051 52.9085 18.9794 52.7102 18.9794H51.1162C50.9179 18.9794 50.7443 18.9051 50.5957 18.7566C50.4467 18.6081 50.3724 18.4349 50.3724 18.2368V4.14976C50.3724 3.95176 50.4467 3.77851 50.5957 3.62997C50.7443 3.48148 50.9179 3.40723 51.1162 3.40723H57.8746C59.5042 3.40723 60.8252 3.87044 61.8384 4.79684C62.8513 5.72325 63.3578 6.9785 63.3578 8.56257C63.3578 9.58094 63.1348 10.4543 62.6886 11.1827C62.242 11.9111 61.587 12.4591 60.7224 12.8269C60.666 12.8552 60.5737 12.8976 60.4463 12.9542L60.3825 12.9754ZM53.454 6.3986V10.578H57.5985C58.8167 10.578 59.6457 10.2315 60.0849 9.53851C60.2265 9.28391 60.2976 8.95861 60.2976 8.56257C60.2976 7.89784 60.0779 7.37454 59.6387 6.99263C59.1569 6.59663 58.505 6.3986 57.6834 6.3986H53.454ZM73.1344 3.40723C75.4578 3.40723 77.3634 4.18513 78.8514 5.74093C80.3105 7.26843 81.0403 9.14247 81.0403 11.363C81.0403 13.5836 80.3105 15.4576 78.8514 16.9851C77.3634 18.5409 75.4578 19.3188 73.1344 19.3188C70.8107 19.3188 68.905 18.5409 67.4174 16.9851C65.9579 15.4576 65.2282 13.5836 65.2282 11.363C65.2282 9.14247 65.9579 7.26843 67.4174 5.74093C68.905 4.18513 70.8107 3.40723 73.1344 3.40723ZM73.1344 16.285C74.5935 16.285 75.7698 15.8183 76.6622 14.8848C77.5265 13.9796 77.9586 12.8092 77.9586 11.3736C77.9586 9.93806 77.5195 8.75706 76.6411 7.83065C75.7624 6.90425 74.5935 6.44103 73.1344 6.44103C71.675 6.44103 70.5061 6.90425 69.6277 7.83065C68.749 8.75706 68.3098 9.93806 68.3098 11.3736C68.3098 12.8092 68.742 13.9796 69.6062 14.8848C70.499 15.8183 71.675 16.285 73.1344 16.285ZM98.4892 10.8326V10.9175C98.5033 11.0165 98.5104 11.165 98.5104 11.363C98.5104 11.6742 98.4892 12.0348 98.4466 12.445C98.2339 14.2271 97.5257 15.7405 96.3212 16.9851C94.8336 18.5409 92.9279 19.3188 90.6042 19.3188C88.2805 19.3188 86.3748 18.5409 84.8872 16.9851C83.4277 15.4576 82.698 13.5836 82.698 11.363C82.698 9.14247 83.4277 7.26843 84.8872 5.74093C86.3748 4.18513 88.2805 3.40723 90.6042 3.40723C92.9279 3.40723 94.8336 4.18513 96.3212 5.74093C96.8879 6.32083 97.3556 6.99263 97.7239 7.7564C97.7947 7.86954 97.8303 8.0039 97.8303 8.1595C97.8303 8.3575 97.7595 8.52724 97.6176 8.66867C97.476 8.81011 97.2989 8.88081 97.0865 8.88081H95.3013C95.1738 8.88081 95.0533 8.84899 94.9399 8.78536C94.8265 8.72169 94.7413 8.64037 94.6849 8.54137C94.4863 8.24437 94.3021 8.01097 94.1324 7.84127C93.2396 6.90777 92.0636 6.44103 90.6042 6.44103C89.1447 6.44103 87.9758 6.90425 87.0975 7.83065C86.2191 8.75706 85.78 9.93806 85.78 11.3736C85.78 12.8092 86.2121 13.9796 87.0763 14.8848C87.9688 15.8183 89.1447 16.285 90.6042 16.285C92.0636 16.285 93.2396 15.8183 94.1324 14.8848C94.6138 14.3898 94.9611 13.7958 95.1738 13.1027H90.7317C90.5334 13.1027 90.3598 13.0284 90.2111 12.8799C90.0622 12.7314 89.9879 12.5582 89.9879 12.3601V10.8751C89.9879 10.6771 90.0622 10.5038 90.2111 10.3553C90.3598 10.2068 90.5334 10.1325 90.7317 10.1325H97.7451C97.9437 10.1325 98.1135 10.1997 98.2554 10.3341C98.397 10.4685 98.4748 10.6346 98.4892 10.8326ZM110.858 12.9754L114.025 17.8338C114.096 17.9469 114.135 18.0742 114.142 18.2156C114.149 18.3571 114.121 18.4844 114.057 18.5975C113.993 18.7107 113.901 18.8026 113.781 18.8733C113.66 18.944 113.536 18.9794 113.408 18.9794H111.496C111.368 18.9794 111.248 18.9476 111.134 18.8839C111.021 18.8203 110.936 18.7389 110.879 18.6399L107.691 13.5695H103.93V18.2368C103.93 18.4349 103.855 18.6081 103.707 18.7566C103.558 18.9051 103.384 18.9794 103.186 18.9794H101.592C101.394 18.9794 101.22 18.9051 101.071 18.7566C100.922 18.6081 100.848 18.4349 100.848 18.2368V4.14976C100.848 3.95176 100.922 3.77851 101.071 3.62997C101.22 3.48148 101.394 3.40723 101.592 3.40723H108.35C109.98 3.40723 111.301 3.87044 112.314 4.79684C113.327 5.72325 113.834 6.9785 113.834 8.56257C113.834 9.58094 113.611 10.4543 113.164 11.1827C112.718 11.9111 112.063 12.4591 111.198 12.8269C111.142 12.8552 111.05 12.8976 110.922 12.9542L110.858 12.9754ZM103.93 6.3986V10.578H108.074C109.293 10.578 110.122 10.2315 110.561 9.53851C110.702 9.28391 110.773 8.95861 110.773 8.56257C110.773 7.89784 110.554 7.37454 110.115 6.99263C109.633 6.59663 108.981 6.3986 108.159 6.3986H103.93ZM127.712 3.40723C127.924 3.40723 128.102 3.48148 128.243 3.62997C128.385 3.77851 128.456 3.95176 128.456 4.14976V5.6773C128.456 5.8753 128.385 6.04855 128.243 6.19705C128.102 6.34558 127.924 6.41983 127.712 6.41983H119.678V9.66581H126.777C126.989 9.66581 127.166 9.74006 127.308 9.88856C127.45 10.0371 127.521 10.2103 127.521 10.4083V11.9571C127.521 12.1551 127.45 12.3283 127.308 12.4768C127.166 12.6254 126.989 12.6996 126.777 12.6996H119.678V15.9668H127.712C127.924 15.9668 128.102 16.041 128.243 16.1895C128.385 16.338 128.456 16.5113 128.456 16.7093V18.2368C128.456 18.4349 128.385 18.6081 128.243 18.7566C128.102 18.9051 127.924 18.9794 127.712 18.9794H117.34C117.142 18.9794 116.968 18.9051 116.82 18.7566C116.671 18.6081 116.596 18.4349 116.596 18.2368V4.14976C116.596 3.95176 116.671 3.77851 116.82 3.62997C116.968 3.48148 117.142 3.40723 117.34 3.40723H127.712ZM141.335 11.2782C141.93 11.66 142.387 12.1268 142.706 12.6784C143.025 13.23 143.184 13.8453 143.184 14.5241C143.184 16.0799 142.582 17.2892 141.378 18.152C140.258 18.9299 138.749 19.3188 136.851 19.3188C134.697 19.3188 133.032 18.8521 131.856 17.9186C130.779 17.0559 130.163 15.8395 130.007 14.2696C129.979 14.0433 130.043 13.8523 130.199 13.6967C130.354 13.5412 130.538 13.4634 130.751 13.4634H132.409C132.607 13.4634 132.777 13.527 132.919 13.6543C133.06 13.7816 133.139 13.9443 133.153 14.1423C133.181 14.51 133.277 14.8247 133.44 15.0863C133.602 15.348 133.854 15.5778 134.194 15.7759C134.846 16.1436 135.738 16.3275 136.872 16.3275C137.849 16.3275 138.608 16.2143 139.146 15.988C139.557 15.8041 139.833 15.5566 139.975 15.2455C140.06 15.0757 140.102 14.8565 140.102 14.5878C140.102 14.4181 140.071 14.2766 140.007 14.1635C139.943 14.0503 139.84 13.9443 139.699 13.8453C139.302 13.5765 138.778 13.3432 138.126 13.1451C137.559 12.9754 136.801 12.7774 135.852 12.5511C134.988 12.3672 134.173 12.1197 133.408 11.8085C132.543 11.4408 131.863 11.0024 131.367 10.4932C130.744 9.87088 130.432 9.05761 130.432 8.0534C130.432 6.6532 130.963 5.5217 132.026 4.65893C133.06 3.82446 134.555 3.40723 136.511 3.40723C138.466 3.40723 140.003 3.87396 141.123 4.80746C142.171 5.6702 142.731 6.7805 142.801 8.13827C142.83 8.33631 142.766 8.52017 142.61 8.68987C142.44 8.83131 142.263 8.90204 142.079 8.90204H140.421C140.237 8.90204 140.074 8.84192 139.932 8.72169C139.791 8.60149 139.713 8.44944 139.699 8.26557C139.656 7.89784 139.536 7.59374 139.337 7.3533C139.054 6.9997 138.601 6.73807 137.977 6.56833C137.552 6.44103 137.01 6.3774 136.351 6.3774C135.692 6.3774 135.168 6.44458 134.778 6.57895C134.389 6.71332 134.102 6.85827 133.918 7.01387C133.733 7.16943 133.62 7.32504 133.578 7.4806C133.507 7.72104 133.471 7.94734 133.471 8.1595C133.471 8.27264 133.535 8.39287 133.663 8.52017C133.918 8.74644 134.201 8.91617 134.513 9.02934C134.91 9.19904 135.399 9.35464 135.979 9.49607C136.56 9.63751 137.166 9.78601 137.797 9.94161C138.427 10.0972 139.026 10.2669 139.592 10.4508C140.258 10.6771 140.839 10.9529 141.335 11.2782ZM155.957 11.2782C156.552 11.66 157.009 12.1268 157.328 12.6784C157.647 13.23 157.806 13.8453 157.806 14.5241C157.806 16.0799 157.204 17.2892 156 18.152C154.88 18.9299 153.371 19.3188 151.473 19.3188C149.319 19.3188 147.654 18.8521 146.478 17.9186C145.401 17.0559 144.785 15.8395 144.629 14.2696C144.601 14.0433 144.665 13.8523 144.821 13.6967C144.977 13.5412 145.161 13.4634 145.373 13.4634H147.031C147.229 13.4634 147.399 13.527 147.541 13.6543C147.683 13.7816 147.761 13.9443 147.775 14.1423C147.803 14.51 147.899 14.8247 148.062 15.0863C148.224 15.348 148.476 15.5778 148.816 15.7759C149.468 16.1436 150.36 16.3275 151.494 16.3275C152.472 16.3275 153.23 16.2143 153.768 15.988C154.179 15.8041 154.455 15.5566 154.597 15.2455C154.682 15.0757 154.724 14.8565 154.724 14.5878C154.724 14.4181 154.693 14.2766 154.629 14.1635C154.565 14.0503 154.462 13.9443 154.321 13.8453C153.924 13.5765 153.4 13.3432 152.748 13.1451C152.181 12.9754 151.423 12.7774 150.474 12.5511C149.61 12.3672 148.795 12.1197 148.03 11.8085C147.165 11.4408 146.485 11.0024 145.989 10.4932C145.366 9.87088 145.054 9.05761 145.054 8.0534C145.054 6.6532 145.585 5.5217 146.648 4.65893C147.683 3.82446 149.177 3.40723 151.133 3.40723C153.088 3.40723 154.625 3.87396 155.745 4.80746C156.793 5.6702 157.353 6.7805 157.423 8.13827C157.452 8.33631 157.388 8.52017 157.232 8.68987C157.062 8.83131 156.885 8.90204 156.701 8.90204H155.043C154.859 8.90204 154.696 8.84192 154.554 8.72169C154.413 8.60149 154.335 8.44944 154.321 8.26557C154.278 7.89784 154.158 7.59374 153.959 7.3533C153.676 6.9997 153.223 6.73807 152.599 6.56833C152.174 6.44103 151.632 6.3774 150.973 6.3774C150.314 6.3774 149.79 6.44458 149.401 6.57895C149.011 6.71332 148.724 6.85827 148.54 7.01387C148.356 7.16943 148.242 7.32504 148.2 7.4806C148.129 7.72104 148.093 7.94734 148.093 8.1595C148.093 8.27264 148.157 8.39287 148.285 8.52017C148.54 8.74644 148.823 8.91617 149.135 9.02934C149.532 9.19904 150.021 9.35464 150.601 9.49607C151.182 9.63751 151.788 9.78601 152.419 9.94161C153.049 10.0972 153.648 10.2669 154.214 10.4508C154.88 10.6771 155.461 10.9529 155.957 11.2782Z" fill="white"/>
<path d="M35.4102 32.6639V31.4971C35.5098 31.522 35.6341 31.5468 35.775 31.5633C35.9159 31.5882 36.0652 31.6047 36.2226 31.613C36.3801 31.6213 36.5375 31.6295 36.7034 31.6378C36.8693 31.6461 37.0267 31.6544 37.1676 31.6544C37.5574 31.6544 37.8307 31.6295 37.9966 31.5882C38.154 31.5468 38.2371 31.4723 38.2371 31.3564C38.2371 31.2572 38.1625 31.1827 38.0878 31.1248C37.8142 30.9427 37.4909 30.8682 37.1676 30.7938C36.2558 30.6117 35.4186 30.2476 35.4186 29.205C35.4186 27.972 36.5875 27.6824 37.5905 27.6824C38.1459 27.6824 38.7094 27.7403 39.2483 27.8727V29.0395C39.1655 29.0147 39.0577 28.9981 38.925 28.9733C38.7841 28.9567 38.6432 28.9402 38.4858 28.9236C38.1625 28.8905 37.8557 28.874 37.5324 28.874C37.35 28.874 36.9686 28.874 36.7946 28.9402C36.6787 28.9815 36.6041 29.0312 36.6041 29.1636C36.6041 29.2298 36.6206 29.2877 36.6537 29.3374C36.6868 29.3953 36.7449 29.4367 36.8196 29.478C37.0432 29.6022 37.3334 29.6766 37.5821 29.7346C37.7895 29.7842 37.9966 29.8421 38.2121 29.9001C38.9415 30.0987 39.4226 30.5042 39.4226 31.282C39.4226 32.5646 38.1459 32.8377 37.1179 32.8377C36.554 32.8377 35.9656 32.7963 35.4102 32.6639ZM43.8689 31.6792C44.7726 31.6792 45.2368 31.0999 45.2368 30.2559C45.2368 29.3622 44.7395 28.8326 43.8689 28.8326C42.9571 28.8326 42.501 29.4119 42.501 30.2559C42.501 31.133 43.0068 31.6792 43.8689 31.6792ZM43.8689 32.8294C42.3105 32.8294 41.2578 31.7702 41.2578 30.2559C41.2578 28.6919 42.3602 27.6824 43.8689 27.6824C45.4358 27.6824 46.48 28.7333 46.48 30.2559C46.48 31.8281 45.3858 32.8294 43.8689 32.8294ZM52.3442 31.6378V32.788H48.5723V27.7238H49.8159V31.6378H52.3442ZM57.3794 27.7238H58.6226V30.7193C58.6226 32.035 57.6777 32.8294 56.4261 32.8294C55.1413 32.8294 54.2291 31.9854 54.2291 30.7193V27.7238H55.4727V30.7193C55.4727 31.3151 55.8291 31.6792 56.4261 31.6792C57.0396 31.6792 57.3794 31.3234 57.3794 30.7193V27.7238ZM60.516 27.7238H64.744V28.874H63.2518V32.788H62.0082V28.874H60.516V27.7238ZM66.6785 27.7238H67.9221V32.788H66.6785V27.7238ZM72.6174 31.6792C73.5208 31.6792 73.9849 31.0999 73.9849 30.2559C73.9849 29.3622 73.4877 28.8326 72.6174 28.8326C71.7052 28.8326 71.2495 29.4119 71.2495 30.2559C71.2495 31.133 71.7553 31.6792 72.6174 31.6792ZM72.6174 32.8294C71.059 32.8294 70.006 31.7702 70.006 30.2559C70.006 28.6919 71.1086 27.6824 72.6174 27.6824C74.1839 27.6824 75.2285 28.7333 75.2285 30.2559C75.2285 31.8281 74.1343 32.8294 72.6174 32.8294ZM80.5539 27.7238H81.7971V32.788H80.5539L78.5644 29.8256V32.788H77.3208V27.7238H78.5644L80.5539 30.6862V27.7238ZM86.9186 27.7238H91.1462V28.874H89.654V32.788H88.4108V28.874H86.9186V27.7238ZM93.1142 27.7238H96.8857V28.874H94.3574V29.6849H96.3885V30.8352H94.3574V31.6378H96.8857V32.788H93.1142V27.7238ZM102.899 31.373V32.6474C102.385 32.788 101.871 32.8459 101.341 32.8459C99.7821 32.8459 98.7379 31.7785 98.7379 30.2642C98.7379 28.7085 99.8237 27.6824 101.332 27.6824C101.855 27.6824 102.402 27.7238 102.899 27.881V29.1553C102.493 28.9567 101.855 28.8823 101.407 28.8823C100.396 28.8823 99.9811 29.296 99.9811 30.2559C99.9811 31.2737 100.47 31.6461 101.415 31.6461C101.838 31.6461 102.526 31.5799 102.899 31.373ZM108.009 27.7238H109.252V32.788H108.009V30.8352H106.185V32.788H104.942V27.7238H106.185V29.6849H108.009V27.7238ZM114.752 27.7238H115.995V32.788H114.752L112.762 29.8256V32.788H111.519V27.7238H112.762L114.752 30.6862V27.7238ZM120.707 31.6792C121.611 31.6792 122.075 31.0999 122.075 30.2559C122.075 29.3622 121.577 28.8326 120.707 28.8326C119.795 28.8326 119.339 29.4119 119.339 30.2559C119.339 31.133 119.845 31.6792 120.707 31.6792ZM120.707 32.8294C119.148 32.8294 118.096 31.7702 118.096 30.2559C118.096 28.6919 119.198 27.6824 120.707 27.6824C122.274 27.6824 123.318 28.7333 123.318 30.2559C123.318 31.8281 122.224 32.8294 120.707 32.8294ZM129.182 31.6378V32.788H125.41V27.7238H126.654V31.6378H129.182ZM133.454 31.6792C134.358 31.6792 134.822 31.0999 134.822 30.2559C134.822 29.3622 134.325 28.8326 133.454 28.8326C132.543 28.8326 132.087 29.4119 132.087 30.2559C132.087 31.133 132.592 31.6792 133.454 31.6792ZM133.454 32.8294C131.896 32.8294 130.843 31.7702 130.843 30.2559C130.843 28.6919 131.946 27.6824 133.454 27.6824C135.021 27.6824 136.066 28.7333 136.066 30.2559C136.066 31.8281 134.972 32.8294 133.454 32.8294ZM142.643 29.6849V32.4984C142.054 32.7218 141.316 32.8459 140.687 32.8459C139.07 32.8459 137.984 31.8778 137.984 30.2807C137.984 28.5347 139.286 27.6824 140.877 27.6824C140.985 27.6824 141.101 27.6824 141.234 27.6906C141.358 27.6989 141.491 27.7155 141.632 27.7238C141.889 27.7569 142.145 27.79 142.394 27.8644V29.1305C142.303 29.0891 142.203 29.056 142.087 29.0229C141.963 28.9981 141.839 28.9733 141.706 28.9485C141.441 28.8988 141.159 28.8823 140.885 28.8823C139.833 28.8823 139.227 29.205 139.227 30.2807C139.227 31.3316 139.783 31.6461 140.728 31.6461C140.827 31.6461 140.935 31.6378 141.051 31.6295C141.159 31.6213 141.275 31.613 141.399 31.6047V30.8352H140.322V29.6849H142.643ZM144.743 27.7238H145.987V32.788H144.743V27.7238ZM148.245 27.7238H152.017V28.874H149.488V29.6849H151.519V30.8352H149.488V31.6378H152.017V32.788H148.245V27.7238ZM153.794 32.6639V31.4971C153.894 31.522 154.018 31.5468 154.159 31.5633C154.3 31.5882 154.449 31.6047 154.606 31.613C154.764 31.6213 154.921 31.6295 155.087 31.6378C155.253 31.6461 155.41 31.6544 155.551 31.6544C155.941 31.6544 156.214 31.6295 156.38 31.5882C156.538 31.5468 156.621 31.4723 156.621 31.3564C156.621 31.2572 156.546 31.1827 156.472 31.1248C156.198 30.9427 155.875 30.8682 155.551 30.7938C154.639 30.6117 153.802 30.2476 153.802 29.205C153.802 27.972 154.971 27.6824 155.974 27.6824C156.53 27.6824 157.093 27.7403 157.632 27.8727V29.0395C157.549 29.0147 157.441 28.9981 157.309 28.9733C157.168 28.9567 157.027 28.9402 156.869 28.9236C156.546 28.8905 156.239 28.874 155.916 28.874C155.734 28.874 155.352 28.874 155.178 28.9402C155.062 28.9815 154.988 29.0312 154.988 29.1636C154.988 29.2298 155.004 29.2877 155.037 29.3374C155.071 29.3953 155.129 29.4367 155.203 29.478C155.427 29.6022 155.717 29.6766 155.966 29.7346C156.173 29.7842 156.38 29.8421 156.596 29.9001C157.325 30.0987 157.806 30.5042 157.806 31.282C157.806 32.5646 156.53 32.8377 155.502 32.8377C154.938 32.8377 154.349 32.7963 153.794 32.6639Z" fill="white"/>
</g>
</g>
<defs>
<clipPath id="clip0_593_8234">
<rect width="157.5" height="36" fill="white"/>
</clipPath>
</defs>
</svg>
