<svg width="120" height="28" viewBox="0 0 120 28" fill="none" xmlns="http://www.w3.org/2000/svg">
<g clip-path="url(#clip0_196_3430)">
<path d="M10.3681 27.6364C11.1053 27.6364 11.703 27.042 11.703 26.3088C11.703 25.5757 11.1053 24.9813 10.3681 24.9813C9.63085 24.9813 9.0332 25.5757 9.0332 26.3088C9.0332 27.042 9.63085 27.6364 10.3681 27.6364Z" fill="#0F81C7"/>
<path d="M13.9814 25.3459C14.7186 25.3459 15.3162 24.7515 15.3162 24.0183C15.3162 23.2852 14.7186 22.6908 13.9814 22.6908C13.2441 22.6908 12.6465 23.2852 12.6465 24.0183C12.6465 24.7515 13.2441 25.3459 13.9814 25.3459Z" fill="#0F81C7"/>
<path d="M19.1493 15.2694C19.8823 15.2694 20.4764 14.6785 20.4764 13.9496C20.4764 13.2207 19.8823 12.6299 19.1493 12.6299C18.4164 12.6299 17.8223 13.2207 17.8223 13.9496C17.8223 14.6785 18.4164 15.2694 19.1493 15.2694Z" fill="#0F81C7"/>
<path d="M16.9013 11.993C17.6385 11.993 18.2362 11.3987 18.2362 10.6655C18.2362 9.93231 17.6385 9.33795 16.9013 9.33795C16.1641 9.33795 15.5664 9.93231 15.5664 10.6655C15.5664 11.3987 16.1641 11.993 16.9013 11.993Z" fill="#0F81C7"/>
<path d="M13.9814 5.22337C14.7186 5.22337 15.3162 4.62901 15.3162 3.89583C15.3162 3.16266 14.7186 2.5683 13.9814 2.5683C13.2441 2.5683 12.6465 3.16266 12.6465 3.89583C12.6465 4.62901 13.2441 5.22337 13.9814 5.22337Z" fill="#0F81C7"/>
<path d="M10.3681 3.01871C11.1053 3.01871 11.703 2.42435 11.703 1.69117C11.703 0.957991 11.1053 0.363632 10.3681 0.363632C9.63085 0.363632 9.0332 0.957991 9.0332 1.69117C9.0332 2.42435 9.63085 3.01871 10.3681 3.01871Z" fill="#0F81C7"/>
<path d="M1.33488 5.88325C2.07212 5.88325 2.66976 5.28889 2.66976 4.55572C2.66976 3.82254 2.07212 3.22818 1.33488 3.22818C0.597647 3.22818 0 3.82254 0 4.55572C0 5.28889 0.597647 5.88325 1.33488 5.88325Z" fill="#0F81C7"/>
<path d="M2.05363 15.5797C2.79087 15.5797 3.38851 14.9853 3.38851 14.2521C3.38851 13.5189 2.79087 12.9246 2.05363 12.9246C1.3164 12.9246 0.71875 13.5189 0.71875 14.2521C0.71875 14.9853 1.3164 15.5797 2.05363 15.5797Z" fill="#0F81C7"/>
<path d="M2.05364 20.9832C2.78656 20.9832 3.38071 20.3923 3.38071 19.6634C3.38071 18.9345 2.78656 18.3436 2.05364 18.3436C1.32071 18.3436 0.726562 18.9345 0.726562 19.6634C0.726562 20.3923 1.32071 20.9832 2.05364 20.9832Z" fill="#0F81C7"/>
<path d="M5.94816 24.9736C6.6854 24.9736 7.28305 24.3792 7.28305 23.646C7.28305 22.9128 6.6854 22.3185 5.94816 22.3185C5.21093 22.3185 4.61328 22.9128 4.61328 23.646C4.61328 24.3792 5.21093 24.9736 5.94816 24.9736Z" fill="#0F81C7"/>
<path d="M8.1032 14.4539C8.61061 13.926 9.46931 13.926 9.97672 14.4539C10.4919 14.9585 10.4919 15.8048 9.97672 16.3094C9.46931 16.845 8.61061 16.845 8.1032 16.3094C7.57237 15.797 7.57237 14.9585 8.1032 14.4539Z" fill="#0F81C7"/>
<path d="M10.9522 26.5258H9.80467V22.6131L4.83984 17.6911V11.364L9.77344 6.48082V1.59766H10.921V6.95438L6.00299 11.8531V17.2176L10.9522 22.1395V26.5258Z" fill="#0F81C7"/>
<path d="M10.7806 22.7763L9.96094 21.9767L13.0991 18.8481V14.1202L10.1405 11.1623L13.4191 7.90949V3.89583H14.5589V8.39082L11.7798 11.1623L14.2622 13.6311V19.3372L10.7806 22.7763Z" fill="#0F81C7"/>
<path d="M13.4659 19.3067L9.38672 15.25L8.56978 16.0624L12.649 20.1192L13.4659 19.3067Z" fill="#0F81C7"/>
<path d="M5.00446 11.7601L0.757812 7.52911V4.55574H1.91315V7.05555L5.83193 10.9372L5.00446 11.7601Z" fill="#0F81C7"/>
<path d="M17.321 11.0955L16.5117 10.2755L13.2636 13.4459L14.0729 14.266L17.321 11.0955Z" fill="#0F81C7"/>
<path d="M5.83957 17.0403L2.46484 13.6993L1.63323 14.5301L5.00796 17.8711L5.83957 17.0403Z" fill="#0F81C7"/>
<path d="M14.3236 24.4299L13.5039 23.607L16.3454 20.7966V15.9213L18.7341 13.5224L19.5616 14.3453L17.4929 16.3871V21.2702L14.3236 24.4299Z" fill="#0F81C7"/>
<path d="M6.36738 23.2415L2.46484 19.3604L1.63135 20.1894L5.53388 24.0704L6.36738 23.2415Z" fill="#0F81C7"/>
<path d="M32.3741 2.94472C33.6562 2.94472 34.6905 3.3117 35.477 4.04567C36.2636 4.77964 36.6568 5.75738 36.6568 6.97887C36.6568 8.20037 36.2689 9.17542 35.4932 9.90404C34.7175 10.6326 33.6778 10.997 32.3741 10.997H29.2873V14.2757C29.2873 14.4257 29.2307 14.557 29.1176 14.6695C29.0045 14.782 28.8725 14.8382 28.7216 14.8382H27.4934C27.3425 14.8382 27.2106 14.782 27.0974 14.6695C26.9843 14.557 26.9277 14.4257 26.9277 14.2757V9.29329C26.9277 9.14328 26.9843 9.01202 27.0974 8.89952C27.2106 8.78701 27.3425 8.73076 27.4934 8.73076H32.2771C32.999 8.73076 33.5161 8.57539 33.8286 8.26466C34.141 7.98607 34.2973 7.56283 34.2973 6.99495C34.2973 6.42706 34.1357 5.99042 33.8124 5.68505C33.4892 5.37968 32.9774 5.22699 32.2771 5.22699H27.4934C27.3425 5.22699 27.2106 5.17074 27.0974 5.05823C26.9843 4.94572 26.9277 4.81447 26.9277 4.66446V3.50725C26.9277 3.35724 26.9843 3.22598 27.0974 3.11348C27.2106 3.00097 27.3425 2.94472 27.4934 2.94472H32.3741ZM45.9172 10.1933L48.3252 13.8739C48.3791 13.9596 48.4087 14.0561 48.4141 14.1632C48.4195 14.2704 48.398 14.3668 48.3495 14.4525C48.301 14.5382 48.231 14.6079 48.1394 14.6614C48.0478 14.715 47.9535 14.7418 47.8566 14.7418H46.4021C46.3051 14.7418 46.2135 14.7177 46.1273 14.6695C46.0411 14.6213 45.9765 14.5597 45.9334 14.4847L43.5092 10.6434H40.6486V14.1793C40.6486 14.3293 40.5921 14.4605 40.479 14.573C40.3658 14.6856 40.2338 14.7418 40.083 14.7418H38.8709C38.7201 14.7418 38.5881 14.6856 38.475 14.573C38.3618 14.4605 38.3053 14.3293 38.3053 14.1793V3.50725C38.3053 3.35724 38.3618 3.22598 38.475 3.11348C38.5881 3.00097 38.7201 2.94472 38.8709 2.94472H44.0102C45.2492 2.94472 46.2539 3.29563 47.0243 3.99746C47.7946 4.69928 48.1798 5.65023 48.1798 6.85029C48.1798 7.62177 48.0101 8.28341 47.6707 8.83523C47.3313 9.38704 46.833 9.80225 46.1758 10.0808C46.1327 10.1023 46.0627 10.1344 45.9657 10.1773L45.9172 10.1933ZM40.6486 5.21092V8.37717H43.8001C44.7267 8.37717 45.357 8.11465 45.691 7.58962C45.7987 7.39675 45.8526 7.15031 45.8526 6.85029C45.8526 6.34669 45.6856 5.95024 45.3516 5.66094C44.9853 5.36092 44.4896 5.21092 43.8647 5.21092H40.6486ZM55.614 2.94472C57.3809 2.94472 58.8301 3.53404 59.9614 4.71267C61.0711 5.86988 61.626 7.2896 61.626 8.97184C61.626 10.6541 61.0711 12.0738 59.9614 13.231C58.8301 14.4096 57.3809 14.999 55.614 14.999C53.847 14.999 52.3979 14.4096 51.2666 13.231C50.1569 12.0738 49.602 10.6541 49.602 8.97184C49.602 7.2896 50.1569 5.86988 51.2666 4.71267C52.3979 3.53404 53.847 2.94472 55.614 2.94472ZM55.614 12.7006C56.7237 12.7006 57.618 12.347 58.2967 11.6398C58.954 10.9541 59.2826 10.0674 59.2826 8.97988C59.2826 7.89232 58.9486 6.99762 58.2806 6.2958C57.6126 5.59397 56.7237 5.24306 55.614 5.24306C54.5042 5.24306 53.6154 5.59397 52.9474 6.2958C52.2794 6.99762 51.9454 7.89232 51.9454 8.97988C51.9454 10.0674 52.274 10.9541 52.9312 11.6398C53.61 12.347 54.5042 12.7006 55.614 12.7006ZM74.8944 8.57003V8.63432C74.9051 8.70933 74.9105 8.82183 74.9105 8.97184C74.9105 9.20757 74.8944 9.4808 74.862 9.79153C74.7004 11.1416 74.1617 12.2881 73.2459 13.231C72.1146 14.4096 70.6655 14.999 68.8985 14.999C67.1316 14.999 65.6824 14.4096 64.5512 13.231C63.4414 12.0738 62.8865 10.6541 62.8865 8.97184C62.8865 7.2896 63.4414 5.86988 64.5512 4.71267C65.6824 3.53404 67.1316 2.94472 68.8985 2.94472C70.6655 2.94472 72.1146 3.53404 73.2459 4.71267C73.6769 5.15198 74.0324 5.66094 74.3126 6.23955C74.3664 6.32526 74.3934 6.42706 74.3934 6.54492C74.3934 6.69493 74.3395 6.82351 74.2318 6.93066C74.124 7.0378 73.9893 7.09138 73.8277 7.09138H72.4702C72.3732 7.09138 72.2816 7.06727 72.1954 7.01905C72.1092 6.97084 72.0446 6.90923 72.0015 6.83422C71.8507 6.60921 71.7106 6.43241 71.5813 6.30383C70.9025 5.59665 70.0083 5.24306 68.8985 5.24306C67.7888 5.24306 66.8999 5.59397 66.2319 6.2958C65.5639 6.99762 65.2299 7.89232 65.2299 8.97988C65.2299 10.0674 65.5585 10.9541 66.2158 11.6398C66.8945 12.347 67.7888 12.7006 68.8985 12.7006C70.0083 12.7006 70.9025 12.347 71.5813 11.6398C71.9476 11.2648 72.2116 10.8148 72.3732 10.2898H68.9955C68.8447 10.2898 68.7127 10.2335 68.5996 10.121C68.4864 10.0085 68.4299 9.87725 68.4299 9.72724V8.60218C68.4299 8.45217 68.4864 8.32091 68.5996 8.20841C68.7127 8.0959 68.8447 8.03965 68.9955 8.03965H74.3287C74.4796 8.03965 74.6088 8.09054 74.7166 8.19233C74.8243 8.29413 74.8836 8.42002 74.8944 8.57003ZM84.3002 10.1933L86.7082 13.8739C86.7621 13.9596 86.7917 14.0561 86.7971 14.1632C86.8025 14.2704 86.781 14.3668 86.7325 14.4525C86.684 14.5382 86.614 14.6079 86.5224 14.6614C86.4308 14.715 86.3365 14.7418 86.2396 14.7418H84.7851C84.6881 14.7418 84.5965 14.7177 84.5103 14.6695C84.4241 14.6213 84.3595 14.5597 84.3164 14.4847L81.8922 10.6434H79.0316V14.1793C79.0316 14.3293 78.9751 14.4605 78.862 14.573C78.7488 14.6856 78.6168 14.7418 78.466 14.7418H77.2539C77.1031 14.7418 76.9711 14.6856 76.858 14.573C76.7448 14.4605 76.6883 14.3293 76.6883 14.1793V3.50725C76.6883 3.35724 76.7448 3.22598 76.858 3.11348C76.9711 3.00097 77.1031 2.94472 77.2539 2.94472H82.3932C83.6322 2.94472 84.6369 3.29563 85.4073 3.99746C86.1776 4.69928 86.5628 5.65023 86.5628 6.85029C86.5628 7.62177 86.3931 8.28341 86.0537 8.83523C85.7143 9.38704 85.216 9.80225 84.5588 10.0808C84.5157 10.1023 84.4457 10.1344 84.3487 10.1773L84.3002 10.1933ZM79.0316 5.21092V8.37717H82.1831C83.1097 8.37717 83.74 8.11465 84.074 7.58962C84.1817 7.39675 84.2356 7.15031 84.2356 6.85029C84.2356 6.34669 84.0686 5.95024 83.7346 5.66094C83.3683 5.36092 82.8726 5.21092 82.2477 5.21092H79.0316ZM97.1161 2.94472C97.2777 2.94472 97.4124 3.00097 97.5201 3.11348C97.6279 3.22598 97.6817 3.35724 97.6817 3.50725V4.66446C97.6817 4.81447 97.6279 4.94572 97.5201 5.05823C97.4124 5.17074 97.2777 5.22699 97.1161 5.22699H91.0071V7.68605H96.405C96.5666 7.68605 96.7013 7.74231 96.809 7.85481C96.9168 7.96732 96.9707 8.09858 96.9707 8.24859V9.42187C96.9707 9.57188 96.9168 9.70313 96.809 9.81564C96.7013 9.92815 96.5666 9.9844 96.405 9.9844H91.0071V12.4595H97.1161C97.2777 12.4595 97.4124 12.5158 97.5201 12.6283C97.6279 12.7408 97.6817 12.8721 97.6817 13.0221V14.1793C97.6817 14.3293 97.6279 14.4605 97.5201 14.573C97.4124 14.6856 97.2777 14.7418 97.1161 14.7418H89.2294C89.0786 14.7418 88.9466 14.6856 88.8335 14.573C88.7203 14.4605 88.6638 14.3293 88.6638 14.1793V3.50725C88.6638 3.35724 88.7203 3.22598 88.8335 3.11348C88.9466 3.00097 89.0786 2.94472 89.2294 2.94472H97.1161ZM107.475 8.90755C107.928 9.19685 108.275 9.55045 108.518 9.96833C108.76 10.3862 108.882 10.8523 108.882 11.3666C108.882 12.5453 108.424 13.4614 107.508 14.115C106.657 14.7043 105.509 14.999 104.065 14.999C102.428 14.999 101.162 14.6454 100.268 13.9382C99.4487 13.2846 98.98 12.3631 98.8615 11.1738C98.84 11.0023 98.8885 10.8577 99.007 10.7398C99.1255 10.6219 99.2655 10.563 99.4272 10.563H100.688C100.839 10.563 100.968 10.6112 101.076 10.7077C101.183 10.8041 101.243 10.9273 101.253 11.0773C101.275 11.3559 101.348 11.5943 101.472 11.7925C101.595 11.9908 101.787 12.1649 102.045 12.3149C102.541 12.5935 103.22 12.7328 104.082 12.7328C104.825 12.7328 105.401 12.647 105.811 12.4756C106.123 12.3363 106.333 12.1488 106.441 11.9131C106.506 11.7845 106.538 11.6184 106.538 11.4148C106.538 11.2863 106.514 11.1791 106.465 11.0934C106.417 11.0077 106.339 10.9273 106.231 10.8523C105.929 10.6487 105.531 10.4719 105.035 10.3219C104.604 10.1933 104.028 10.0433 103.306 9.87189C102.649 9.7326 102.029 9.54509 101.447 9.30936C100.79 9.03077 100.273 8.69861 99.8958 8.31288C99.4218 7.84142 99.1847 7.22532 99.1847 6.46456C99.1847 5.40378 99.5888 4.54659 100.397 3.89298C101.183 3.26081 102.32 2.94472 103.807 2.94472C105.294 2.94472 106.463 3.29831 107.314 4.00549C108.111 4.6591 108.537 5.50022 108.591 6.52885C108.612 6.67886 108.564 6.81815 108.445 6.94673C108.316 7.05388 108.181 7.10745 108.041 7.10745H106.781C106.64 7.10745 106.517 7.06191 106.409 6.97084C106.301 6.87976 106.242 6.76457 106.231 6.62528C106.199 6.34669 106.107 6.11632 105.956 5.93417C105.741 5.6663 105.396 5.46807 104.922 5.33949C104.599 5.24306 104.187 5.19484 103.686 5.19484C103.185 5.19484 102.786 5.24574 102.49 5.34753C102.193 5.44932 101.975 5.55915 101.835 5.67701C101.695 5.79488 101.609 5.91274 101.577 6.03061C101.523 6.21276 101.496 6.3842 101.496 6.54492C101.496 6.63064 101.544 6.72172 101.641 6.81815C101.835 6.98959 102.051 7.11817 102.288 7.20389C102.589 7.33246 102.961 7.45033 103.403 7.55748C103.845 7.66463 104.305 7.77713 104.785 7.895C105.264 8.01286 105.719 8.14144 106.15 8.28073C106.657 8.45217 107.098 8.66111 107.475 8.90755ZM118.594 8.90755C119.047 9.19685 119.394 9.55045 119.637 9.96833C119.879 10.3862 120 10.8523 120 11.3666C120 12.5453 119.543 13.4614 118.627 14.115C117.776 14.7043 116.628 14.999 115.184 14.999C113.547 14.999 112.281 14.6454 111.386 13.9382C110.568 13.2846 110.099 12.3631 109.98 11.1738C109.959 11.0023 110.007 10.8577 110.126 10.7398C110.244 10.6219 110.384 10.563 110.546 10.563H111.807C111.958 10.563 112.087 10.6112 112.195 10.7077C112.302 10.8041 112.362 10.9273 112.372 11.0773C112.394 11.3559 112.467 11.5943 112.591 11.7925C112.714 11.9908 112.906 12.1649 113.164 12.3149C113.66 12.5935 114.339 12.7328 115.201 12.7328C115.944 12.7328 116.52 12.647 116.93 12.4756C117.242 12.3363 117.452 12.1488 117.56 11.9131C117.625 11.7845 117.657 11.6184 117.657 11.4148C117.657 11.2863 117.633 11.1791 117.584 11.0934C117.536 11.0077 117.458 10.9273 117.35 10.8523C117.048 10.6487 116.65 10.4719 116.154 10.3219C115.723 10.1933 115.147 10.0433 114.425 9.87189C113.768 9.7326 113.148 9.54509 112.566 9.30936C111.909 9.03077 111.392 8.69861 111.015 8.31288C110.541 7.84142 110.304 7.22532 110.304 6.46456C110.304 5.40378 110.708 4.54659 111.516 3.89298C112.302 3.26081 113.439 2.94472 114.926 2.94472C116.413 2.94472 117.582 3.29831 118.433 4.00549C119.23 4.6591 119.656 5.50022 119.71 6.52885C119.731 6.67886 119.683 6.81815 119.564 6.94673C119.435 7.05388 119.3 7.10745 119.16 7.10745H117.899C117.759 7.10745 117.636 7.06191 117.528 6.97084C117.42 6.87976 117.361 6.76457 117.35 6.62528C117.318 6.34669 117.226 6.11632 117.075 5.93417C116.86 5.6663 116.515 5.46807 116.041 5.33949C115.718 5.24306 115.306 5.19484 114.805 5.19484C114.304 5.19484 113.905 5.24574 113.609 5.34753C113.312 5.44932 113.094 5.55915 112.954 5.67701C112.814 5.79488 112.728 5.91274 112.696 6.03061C112.642 6.21276 112.615 6.3842 112.615 6.54492C112.615 6.63064 112.663 6.72172 112.76 6.81815C112.954 6.98959 113.17 7.11817 113.407 7.20389C113.708 7.33246 114.08 7.45033 114.522 7.55748C114.964 7.66463 115.424 7.77713 115.904 7.895C116.383 8.01286 116.838 8.14144 117.269 8.28073C117.776 8.45217 118.217 8.66111 118.594 8.90755Z" fill="#1C1C1C"/>
<path d="M26.9277 25.1088V24.2248C27.0034 24.2436 27.0979 24.2625 27.2051 24.275C27.3123 24.2938 27.4257 24.3063 27.5455 24.3126C27.6653 24.3189 27.785 24.3251 27.9111 24.3314C28.0372 24.3377 28.1569 24.3439 28.2641 24.3439C28.5604 24.3439 28.7684 24.3251 28.8945 24.2938C29.0142 24.2625 29.0773 24.206 29.0773 24.1183C29.0773 24.043 29.0205 23.9866 28.9638 23.9427C28.7558 23.8048 28.5099 23.7484 28.2641 23.692C27.5707 23.5541 26.934 23.2782 26.934 22.4884C26.934 21.5543 27.8228 21.3349 28.5856 21.3349C29.0079 21.3349 29.4366 21.3788 29.8463 21.4791V22.363C29.7833 22.3442 29.7013 22.3316 29.6005 22.3128C29.4933 22.3003 29.3861 22.2877 29.2664 22.2752C29.0205 22.2501 28.7873 22.2376 28.5415 22.2376C28.4028 22.2376 28.1128 22.2376 27.9804 22.2877C27.8922 22.3191 27.8355 22.3567 27.8355 22.457C27.8355 22.5072 27.8481 22.551 27.8733 22.5887C27.8985 22.6325 27.9426 22.6639 27.9993 22.6952C28.1695 22.7893 28.3902 22.8457 28.5793 22.8896C28.7369 22.9272 28.8945 22.9711 29.0584 23.0149C29.6131 23.1654 29.9787 23.4726 29.9787 24.0618C29.9787 25.0335 29.0079 25.2404 28.2263 25.2404C27.7976 25.2404 27.3501 25.2091 26.9277 25.1088ZM33.3599 24.3628C34.047 24.3628 34.4 23.9239 34.4 23.2845C34.4 22.6075 34.0218 22.2062 33.3599 22.2062C32.6665 22.2062 32.3198 22.6451 32.3198 23.2845C32.3198 23.949 32.7044 24.3628 33.3599 24.3628ZM33.3599 25.2341C32.1749 25.2341 31.3743 24.4317 31.3743 23.2845C31.3743 22.0997 32.2127 21.3349 33.3599 21.3349C34.5513 21.3349 35.3456 22.131 35.3456 23.2845C35.3456 24.4756 34.5135 25.2341 33.3599 25.2341ZM39.8047 24.3314V25.2028H36.9366V21.3662H37.8821V24.3314H39.8047ZM43.6335 21.3662H44.5791V23.6356C44.5791 24.6323 43.8605 25.2341 42.9086 25.2341C41.9316 25.2341 41.2382 24.5947 41.2382 23.6356V21.3662H42.1837V23.6356C42.1837 24.0869 42.4548 24.3628 42.9086 24.3628C43.3751 24.3628 43.6335 24.0932 43.6335 23.6356V21.3662ZM46.0188 21.3662H49.2337V22.2376H48.099V25.2028H47.1535V22.2376H46.0188V21.3662ZM50.7049 21.3662H51.6505V25.2028H50.7049V21.3662ZM55.2208 24.3628C55.9079 24.3628 56.2609 23.9239 56.2609 23.2845C56.2609 22.6075 55.8827 22.2062 55.2208 22.2062C54.5274 22.2062 54.1807 22.6451 54.1807 23.2845C54.1807 23.949 54.5653 24.3628 55.2208 24.3628ZM55.2208 25.2341C54.0358 25.2341 53.2352 24.4317 53.2352 23.2845C53.2352 22.0997 54.0736 21.3349 55.2208 21.3349C56.4122 21.3349 57.2065 22.131 57.2065 23.2845C57.2065 24.4756 56.3744 25.2341 55.2208 25.2341ZM61.2559 21.3662H62.2014V25.2028H61.2559L59.743 22.9585V25.2028H58.7975V21.3662H59.743L61.2559 23.6105V21.3662ZM66.0958 21.3662H69.3107V22.2376H68.176V25.2028H67.2305V22.2376H66.0958V21.3662ZM70.8071 21.3662H73.6753V22.2376H71.7527V22.8519H73.2971V23.7233H71.7527V24.3314H73.6753V25.2028H70.8071V21.3662ZM78.2479 24.1308V25.0962C77.8571 25.2028 77.4663 25.2467 77.0628 25.2467C75.8778 25.2467 75.0835 24.438 75.0835 23.2908C75.0835 22.1122 75.9093 21.3349 77.0565 21.3349C77.4537 21.3349 77.8697 21.3662 78.2479 21.4853V22.4507C77.939 22.3003 77.4537 22.2439 77.1133 22.2439C76.3442 22.2439 76.029 22.5573 76.029 23.2845C76.029 24.0556 76.4009 24.3377 77.1196 24.3377C77.441 24.3377 77.9642 24.2875 78.2479 24.1308ZM82.1334 21.3662H83.079V25.2028H82.1334V23.7233H80.7467V25.2028H79.8011V21.3662H80.7467V22.8519H82.1334V21.3662ZM87.2608 21.3662H88.2063V25.2028H87.2608L85.7479 22.9585V25.2028H84.8024V21.3662H85.7479L87.2608 23.6105V21.3662ZM91.7893 24.3628C92.4764 24.3628 92.8294 23.9239 92.8294 23.2845C92.8294 22.6075 92.4512 22.2062 91.7893 22.2062C91.0959 22.2062 90.7492 22.6451 90.7492 23.2845C90.7492 23.949 91.1337 24.3628 91.7893 24.3628ZM91.7893 25.2341C90.6042 25.2341 89.8037 24.4317 89.8037 23.2845C89.8037 22.0997 90.6421 21.3349 91.7893 21.3349C92.9807 21.3349 93.7749 22.131 93.7749 23.2845C93.7749 24.4756 92.9429 25.2341 91.7893 25.2341ZM98.2341 24.3314V25.2028H95.366V21.3662H96.3115V24.3314H98.2341ZM101.483 24.3628C102.17 24.3628 102.523 23.9239 102.523 23.2845C102.523 22.6075 102.145 22.2062 101.483 22.2062C100.79 22.2062 100.443 22.6451 100.443 23.2845C100.443 23.949 100.827 24.3628 101.483 24.3628ZM101.483 25.2341C100.298 25.2341 99.4974 24.4317 99.4974 23.2845C99.4974 22.0997 100.336 21.3349 101.483 21.3349C102.674 21.3349 103.469 22.131 103.469 23.2845C103.469 24.4756 102.637 25.2341 101.483 25.2341ZM108.47 22.8519V24.9834C108.022 25.1526 107.461 25.2467 106.982 25.2467C105.753 25.2467 104.927 24.5132 104.927 23.3033C104.927 21.9806 105.917 21.3349 107.127 21.3349C107.209 21.3349 107.297 21.3349 107.398 21.3411C107.493 21.3474 107.594 21.3599 107.701 21.3662C107.896 21.3913 108.092 21.4164 108.281 21.4728V22.4319C108.211 22.4006 108.136 22.3755 108.048 22.3504C107.953 22.3316 107.858 22.3128 107.758 22.294C107.556 22.2564 107.342 22.2439 107.134 22.2439C106.333 22.2439 105.873 22.4884 105.873 23.3033C105.873 24.0995 106.295 24.3377 107.014 24.3377C107.089 24.3377 107.171 24.3314 107.26 24.3251C107.342 24.3189 107.43 24.3126 107.524 24.3063V23.7233H106.705V22.8519H108.47ZM110.067 21.3662H111.013V25.2028H110.067V21.3662ZM112.73 21.3662H115.598V22.2376H113.675V22.8519H115.22V23.7233H113.675V24.3314H115.598V25.2028H112.73V21.3662ZM116.95 25.1088V24.2248C117.025 24.2436 117.12 24.2625 117.227 24.275C117.334 24.2938 117.447 24.3063 117.567 24.3126C117.687 24.3189 117.807 24.3251 117.933 24.3314C118.059 24.3377 118.179 24.3439 118.286 24.3439C118.582 24.3439 118.79 24.3251 118.916 24.2938C119.036 24.2625 119.099 24.206 119.099 24.1183C119.099 24.043 119.042 23.9866 118.986 23.9427C118.778 23.8048 118.532 23.7484 118.286 23.692C117.592 23.5541 116.956 23.2782 116.956 22.4884C116.956 21.5543 117.845 21.3349 118.607 21.3349C119.03 21.3349 119.458 21.3788 119.868 21.4791V22.363C119.805 22.3442 119.723 22.3316 119.622 22.3128C119.515 22.3003 119.408 22.2877 119.288 22.2752C119.042 22.2501 118.809 22.2376 118.563 22.2376C118.425 22.2376 118.135 22.2376 118.002 22.2877C117.914 22.3191 117.857 22.3567 117.857 22.457C117.857 22.5072 117.87 22.551 117.895 22.5887C117.92 22.6325 117.964 22.6639 118.021 22.6952C118.191 22.7893 118.412 22.8457 118.601 22.8896C118.759 22.9272 118.916 22.9711 119.08 23.0149C119.635 23.1654 120 23.4726 120 24.0618C120 25.0335 119.03 25.2404 118.248 25.2404C117.819 25.2404 117.372 25.2091 116.95 25.1088Z" fill="#0F81C7"/>
</g>
<defs>
<clipPath id="clip0_196_3430">
<rect width="120" height="27.2727" fill="white" transform="translate(0 0.363632)"/>
</clipPath>
</defs>
</svg>
