<svg width="10" height="13" viewBox="0 0 10 13" fill="none" xmlns="http://www.w3.org/2000/svg">
<path d="M1.66309 5.875C1.00684 5.875 0.651367 5.08203 1.14355 4.58984L4.75293 0.871094C4.88965 0.707031 5.1084 0.625 5.2998 0.625C5.49121 0.625 5.68262 0.707031 5.81934 0.871094L9.42871 4.58984C9.9209 5.08203 9.56543 5.875 8.90918 5.875H1.66309ZM8.90918 7.625C9.56543 7.625 9.9209 8.44531 9.42871 8.9375L5.81934 12.6562C5.68262 12.8203 5.49121 12.875 5.2998 12.875C5.08105 12.875 4.88965 12.8203 4.75293 12.6562L1.14355 8.9375C0.651367 8.44531 1.00684 7.625 1.66309 7.625H8.90918Z" fill="#6B7A99"/>
</svg>
