<svg width="24" height="25" viewBox="0 0 24 25" fill="none" xmlns="http://www.w3.org/2000/svg">
<path d="M10.9245 3.16709C11.2587 2.9443 11.7414 2.9443 12.0755 3.16709L18.4619 6.80585L18.6104 6.84298V6.88011L20.3927 7.91975C20.8754 8.17967 21.0981 8.73662 20.9497 9.25644C20.8383 9.77627 20.3556 10.1104 19.7986 10.1104H3.16426C2.64444 10.1104 2.16175 9.77627 2.05035 9.25644C1.90183 8.73662 2.12462 8.17967 2.60731 7.91975L4.35243 6.88011V6.84298L4.53808 6.80585L10.9245 3.16709ZM4.38956 11.2986H6.7659V18.4276H8.25111V11.2986H10.6274V18.4276H12.4097V11.2986H14.786V18.4276H16.2712V11.2986H18.6476V18.6133C18.6476 18.6133 18.6847 18.6133 18.6847 18.6504L20.467 19.8386C20.9125 20.1356 21.0981 20.6555 20.9497 21.1752C20.8011 21.6579 20.3556 21.9921 19.8357 21.9921H3.20139C2.64444 21.9921 2.19887 21.6579 2.05035 21.1752C1.90183 20.6555 2.08748 20.1356 2.53305 19.8386L4.3153 18.6504C4.3153 18.6133 4.35243 18.6133 4.38956 18.6133V11.2986Z" fill="#0033FF"/>
</svg>
