<svg width="24" height="25" viewBox="0 0 24 25" fill="none" xmlns="http://www.w3.org/2000/svg">
<path d="M21.5714 13.4102C21.5714 14.716 20.7734 15.7316 19.8303 15.7316C18.6334 15.7316 18.6697 14.5709 17.7991 14.5709C17.2913 14.5709 16.9286 14.9699 16.9286 15.4777V20.3744C16.9286 21.0273 16.3845 21.5352 15.7679 21.5352H13.1563C12.6484 21.5352 12.2857 21.1724 12.2857 20.6646C12.2857 19.794 13.4464 19.8303 13.4464 18.6334C13.4464 17.6903 12.3945 16.8923 11.125 16.8923C9.8192 16.8923 8.80357 17.6903 8.80357 18.6334C8.80357 19.8303 9.96429 19.794 9.96429 20.6646C9.96429 21.1724 9.56529 21.5352 9.05747 21.5352H4.16071C3.50781 21.5352 3 21.0273 3 20.3744V15.4777C3 14.9699 3.36272 14.5709 3.87054 14.5709C4.74107 14.5709 4.7048 15.7316 5.90179 15.7316C6.84487 15.7316 7.64286 14.716 7.64286 13.4102C7.64286 12.1406 6.84487 11.0887 5.90179 11.0887C4.7048 11.0887 4.74107 12.2494 3.87054 12.2494C3.36272 12.2494 3 11.8867 3 11.3789V8.7673C3 8.15067 3.50781 7.64286 4.16071 7.64286H9.05747C9.56529 7.60658 9.96429 7.24386 9.96429 6.73604C9.96429 5.86551 8.80357 5.90178 8.80357 4.7048C8.80357 3.76172 9.8192 3 11.125 3C12.3945 3 13.4464 3.79799 13.4464 4.7048C13.4464 5.90178 12.2857 5.86551 12.2857 6.73604C12.2857 7.24386 12.6484 7.60658 13.1563 7.60658H15.7679C16.3845 7.60658 16.9286 8.15067 16.9286 8.7673V11.3426C16.9286 11.8504 17.2913 12.2494 17.7991 12.2494C18.6697 12.2494 18.6334 11.0887 19.8303 11.0887C20.7734 11.0887 21.5714 12.1406 21.5714 13.4102Z" fill="#0033FF"/>
</svg>
