<svg width="24" height="25" viewBox="0 0 24 25" fill="none" xmlns="http://www.w3.org/2000/svg">
<path d="M18.5 7.5H14V3L18.5 7.5ZM14 8.625H18.5V19.3125C18.5 20.2618 17.7266 21 16.8125 21H6.6875C5.73828 21 5 20.2618 5 19.3125V4.6875C5 3.77344 5.73828 3 6.6875 3H12.875V7.5C12.875 8.13281 13.3672 8.625 14 8.625ZM7.25 6.09375C7.25 6.26953 7.35547 6.375 7.53125 6.375H10.3438C10.4844 6.375 10.625 6.26953 10.625 6.09375V5.53125C10.625 5.39062 10.4844 5.25 10.3438 5.25H7.53125C7.35547 5.25 7.25 5.39062 7.25 5.53125V6.09375ZM7.53125 8.625H10.3438C10.4844 8.625 10.625 8.51953 10.625 8.34375V7.78125C10.625 7.64062 10.4844 7.5 10.3438 7.5H7.53125C7.35547 7.5 7.25 7.64062 7.25 7.78125V8.34375C7.25 8.51953 7.35547 8.625 7.53125 8.625ZM11.9258 14.1445L11.7148 14.1094C10.9062 13.8633 10.9062 13.7227 10.9414 13.582C10.9766 13.3008 11.5391 13.2305 11.9961 13.3008C12.207 13.3359 12.418 13.4062 12.6289 13.4766C12.9805 13.6172 13.4023 13.4062 13.5078 13.0547C13.6484 12.668 13.4727 12.2812 13.0859 12.1406C12.8398 12.0703 12.6289 12 12.4531 11.9648V11.7188C12.4531 11.332 12.1367 11.0156 11.75 11.0156C11.3281 11.0156 11.0469 11.332 11.0469 11.7188V11.9297C10.2383 12.1055 9.67578 12.5977 9.57031 13.3359C9.28906 14.8476 10.7305 15.2695 11.3281 15.4453L11.5391 15.5156C12.5586 15.7969 12.5586 15.9024 12.5234 16.0781C12.4883 16.3594 11.9258 16.4297 11.4688 16.3594C11.2227 16.3243 10.9062 16.1837 10.625 16.1132L10.4844 16.043C10.0977 15.9024 9.71094 16.1132 9.57031 16.4649C9.42969 16.8516 9.64062 17.2382 9.99219 17.3789L10.1328 17.4141C10.4141 17.5195 10.7305 17.625 11.0469 17.6953V17.9062C11.0469 18.3281 11.3281 18.6094 11.75 18.6094C12.1367 18.6094 12.4531 18.3281 12.4531 17.9062V17.6953C13.2266 17.5195 13.7891 17.0625 13.8945 16.3243C14.1758 14.7774 12.6992 14.3906 11.9258 14.1445Z" fill="#0033FF"/>
</svg>
