<svg width="24" height="24" viewBox="0 0 24 24" fill="none" xmlns="http://www.w3.org/2000/svg">
<path d="M20.4465 8.35418C22.5178 10.4255 22.5178 13.7474 20.4465 15.8187L16.0694 20.2349C15.7176 20.6258 15.1314 20.6258 14.7406 20.2741C14.3889 19.8832 14.3889 19.2969 14.7406 18.9453L19.1177 14.49C20.4465 13.1612 20.4465 11.0117 19.1177 9.68294L14.1153 4.60235C13.7636 4.25061 13.7636 3.66439 14.1544 3.27357C14.5061 2.92184 15.0923 2.92184 15.4441 3.31265L20.4465 8.35418ZM2 10.7381V4.87591C2 3.85979 2.82071 3 3.87591 3H9.69907C10.3634 3 10.9887 3.27357 11.4577 3.74255L18.0234 10.3082C19.0005 11.2853 19.0005 12.8876 18.0234 13.8647L12.8256 19.0625C11.8486 20.0396 10.2462 20.0396 9.26918 19.0625L2.70347 12.4968C2.23449 12.0278 2 11.4025 2 10.7381ZM6.37713 6.12652C5.67366 6.12652 5.12652 6.71274 5.12652 7.37713C5.12652 8.08061 5.67366 8.62774 6.37713 8.62774C7.04152 8.62774 7.62774 8.08061 7.62774 7.37713C7.62774 6.71274 7.04152 6.12652 6.37713 6.12652Z" fill="#0033FF"/>
</svg>
