<svg width="512" height="512" viewBox="0 0 512 512" fill="none" xmlns="http://www.w3.org/2000/svg">
<g clip-path="url(#clip0_176_10)">
<path d="M296 384H216C202.7 384 192 373.3 192 360V192H104.3C86.5 192 77.6 170.5 90.2 157.9L242.3 5.7002C249.8 -1.7998 262.1 -1.7998 269.6 5.7002L421.8 157.9C434.4 170.5 425.5 192 407.7 192H320V360C320 373.3 309.3 384 296 384ZM512 376V488C512 501.3 501.3 512 488 512H24C10.7 512 0 501.3 0 488V376C0 362.7 10.7 352 24 352H160V360C160 390.9 185.1 416 216 416H296C326.9 416 352 390.9 352 360V352H488C501.3 352 512 362.7 512 376ZM388 464C388 453 379 444 368 444C357 444 348 453 348 464C348 475 357 484 368 484C379 484 388 475 388 464ZM452 464C452 453 443 444 432 444C421 444 412 453 412 464C412 475 421 484 432 484C443 484 452 475 452 464Z" fill="white"/>
</g>
<defs>
<clipPath id="clip0_176_10">
<rect width="512" height="512" fill="white"/>
</clipPath>
</defs>
</svg>
