<svg width="24" height="25" viewBox="0 0 24 25" fill="none" xmlns="http://www.w3.org/2000/svg">
<path d="M22.2026 4.63794H1.79742C0.804703 4.63794 0 5.44264 0 6.43536V9.41375H24V6.43536C24 5.44264 23.1953 4.63794 22.2026 4.63794Z" fill="#82AFFF"/>
<path d="M0 18.5646C0 19.5572 0.804703 20.362 1.79742 20.362H22.2026C23.1952 20.362 24 19.5573 24 18.5646V15.5862H0V18.5646Z" fill="#73AF00"/>
<path d="M24 10.0671H0V14.9323H24V10.0671Z" fill="#F5F5F5"/>
<path d="M0 9.87943V10.0674H24V9.87943V9.41382H0V9.87943Z" fill="#FF4B55"/>
<path d="M0 15.1208V15.5864H24V15.1208V14.9329H0V15.1208Z" fill="#FF4B55"/>
<path d="M5.32067 8.56578C4.47354 8.56578 3.78687 7.88075 3.78687 7.03667C3.78687 6.1895 4.4735 5.50137 5.32067 5.50137C5.32395 5.50137 5.32714 5.50137 5.33032 5.50142C5.3802 5.50207 5.39768 5.43584 5.35371 5.41226C5.09285 5.27243 4.79515 5.19331 4.47865 5.19561C3.46503 5.20282 2.64167 6.04278 2.65245 7.0564C2.66304 8.05957 3.48317 8.87159 4.49192 8.87159C4.80406 8.87159 5.09759 8.79261 5.35521 8.6547C5.39904 8.63121 5.38132 8.56498 5.33164 8.56568C5.32789 8.56578 5.32428 8.56578 5.32067 8.56578Z" fill="#F5F5F5"/>
<path d="M6.52104 8.14298L6.45255 8.34839L6.23604 8.35003C6.208 8.35021 6.19638 8.38603 6.21893 8.40267L6.39311 8.53129L6.32777 8.73773C6.31933 8.76445 6.34975 8.78657 6.37258 8.77026L6.54874 8.64436L6.7249 8.77026C6.74772 8.78657 6.7781 8.76445 6.76971 8.73773L6.70436 8.53129L6.8785 8.40267C6.90105 8.38603 6.88943 8.35021 6.86139 8.35003L6.64488 8.34839L6.5764 8.14298C6.56754 8.1164 6.52994 8.1164 6.52104 8.14298Z" fill="#F5F5F5"/>
<path d="M8.04643 8.14298L7.97794 8.34839L7.76143 8.35003C7.7334 8.35021 7.72177 8.38603 7.74432 8.40267L7.91846 8.53129L7.85311 8.73773C7.84468 8.76445 7.8751 8.78657 7.89793 8.77026L8.07408 8.64436L8.25024 8.77026C8.27307 8.78657 8.30344 8.76445 8.29505 8.73773L8.22971 8.53129L8.40385 8.40267C8.4264 8.38603 8.41477 8.35021 8.38674 8.35003L8.17022 8.34839L8.10174 8.14298C8.09288 8.1164 8.05524 8.1164 8.04643 8.14298Z" fill="#F5F5F5"/>
<path d="M9.57182 8.14298L9.50333 8.34839L9.28682 8.35003C9.25879 8.35021 9.24716 8.38603 9.26971 8.40267L9.44389 8.53129L9.37855 8.73773C9.37011 8.76445 9.40054 8.78657 9.42336 8.77026L9.59952 8.64436L9.77568 8.77026C9.7985 8.78657 9.82888 8.76445 9.82049 8.73773L9.75514 8.53129L9.92929 8.40267C9.95183 8.38603 9.94021 8.35021 9.91218 8.35003L9.69566 8.34839L9.62718 8.14298C9.61832 8.1164 9.58068 8.1164 9.57182 8.14298Z" fill="#F5F5F5"/>
<path d="M11.0972 8.14298L11.0287 8.34839L10.8122 8.35003C10.7842 8.35021 10.7726 8.38603 10.7951 8.40267L10.9692 8.53129L10.9039 8.73773C10.8955 8.76445 10.9259 8.78657 10.9487 8.77026L11.1249 8.64436L11.301 8.77026C11.3238 8.78657 11.3542 8.76445 11.3458 8.73773L11.2805 8.53129L11.4546 8.40267C11.4772 8.38603 11.4656 8.35021 11.4375 8.35003L11.221 8.34839L11.1525 8.14298C11.1437 8.1164 11.1061 8.1164 11.0972 8.14298Z" fill="#F5F5F5"/>
<path d="M12.6226 8.14298L12.5541 8.34839L12.3376 8.35003C12.3096 8.35021 12.2979 8.38603 12.3205 8.40267L12.4947 8.53129L12.4293 8.73773C12.4209 8.76445 12.4513 8.78657 12.4741 8.77026L12.6503 8.64436L12.8265 8.77026C12.8493 8.78657 12.8797 8.76445 12.8713 8.73773L12.8059 8.53129L12.9801 8.40267C13.0027 8.38603 12.991 8.35021 12.963 8.35003L12.7465 8.34839L12.678 8.14298C12.6691 8.1164 12.6315 8.1164 12.6226 8.14298Z" fill="#F5F5F5"/>
<path d="M8.04643 6.71922L7.97794 6.92463L7.76143 6.92627C7.7334 6.92646 7.72177 6.96227 7.74432 6.97891L7.91846 7.10754L7.85311 7.31397C7.84468 7.34069 7.8751 7.36282 7.89793 7.3465L8.07408 7.2206L8.25024 7.3465C8.27307 7.36282 8.30344 7.34069 8.29505 7.31397L8.22971 7.10754L8.40385 6.97891C8.4264 6.96227 8.41477 6.92646 8.38674 6.92627L8.17022 6.92463L8.10174 6.71922C8.09288 6.69255 8.05524 6.69255 8.04643 6.71922Z" fill="#F5F5F5"/>
<path d="M9.57182 6.71922L9.50333 6.92463L9.28682 6.92627C9.25879 6.92646 9.24716 6.96227 9.26971 6.97891L9.44389 7.10754L9.37855 7.31397C9.37011 7.34069 9.40054 7.36282 9.42336 7.3465L9.59952 7.2206L9.77568 7.3465C9.7985 7.36282 9.82888 7.34069 9.82049 7.31397L9.75514 7.10754L9.92929 6.97891C9.95183 6.96227 9.94021 6.92646 9.91218 6.92627L9.69566 6.92463L9.62718 6.71922C9.61832 6.69255 9.58068 6.69255 9.57182 6.71922Z" fill="#F5F5F5"/>
<path d="M11.0972 6.71922L11.0287 6.92463L10.8122 6.92627C10.7842 6.92646 10.7726 6.96227 10.7951 6.97891L10.9692 7.10754L10.9039 7.31397C10.8955 7.34069 10.9259 7.36282 10.9487 7.3465L11.1249 7.2206L11.301 7.3465C11.3238 7.36282 11.3542 7.34069 11.3458 7.31397L11.2805 7.10754L11.4546 6.97891C11.4772 6.96227 11.4656 6.92646 11.4375 6.92627L11.221 6.92463L11.1525 6.71922C11.1437 6.69255 11.1061 6.69255 11.0972 6.71922Z" fill="#F5F5F5"/>
<path d="M12.6226 6.71922L12.5541 6.92463L12.3376 6.92627C12.3096 6.92646 12.2979 6.96227 12.3205 6.97891L12.4947 7.10754L12.4293 7.31397C12.4209 7.34069 12.4513 7.36282 12.4741 7.3465L12.6503 7.2206L12.8265 7.3465C12.8493 7.36282 12.8797 7.34069 12.8713 7.31397L12.8059 7.10754L12.9801 6.97891C13.0027 6.96227 12.991 6.92646 12.963 6.92627L12.7465 6.92463L12.678 6.71922C12.6691 6.69255 12.6315 6.69255 12.6226 6.71922Z" fill="#F5F5F5"/>
<path d="M9.57182 8.14298L9.50333 8.34839L9.28682 8.35003C9.25879 8.35021 9.24716 8.38603 9.26971 8.40267L9.44389 8.53129L9.37855 8.73773C9.37011 8.76445 9.40054 8.78657 9.42336 8.77026L9.59952 8.64436L9.77568 8.77026C9.7985 8.78657 9.82888 8.76445 9.82049 8.73773L9.75514 8.53129L9.92929 8.40267C9.95183 8.38603 9.94021 8.35021 9.91218 8.35003L9.69566 8.34839L9.62718 8.14298C9.61832 8.1164 9.58068 8.1164 9.57182 8.14298Z" fill="#F5F5F5"/>
<path d="M9.57182 5.29557L9.50333 5.50097L9.28682 5.50262C9.25879 5.5028 9.24716 5.53862 9.26971 5.55526L9.44389 5.68388L9.37855 5.89032C9.37011 5.91704 9.40054 5.93916 9.42336 5.92285L9.59952 5.79694L9.77568 5.92285C9.7985 5.93916 9.82888 5.91704 9.82049 5.89032L9.75514 5.68388L9.92929 5.55526C9.95183 5.53862 9.94021 5.5028 9.91218 5.50262L9.69566 5.50097L9.62718 5.29557C9.61832 5.26899 9.58068 5.26899 9.57182 5.29557Z" fill="#F5F5F5"/>
<path d="M11.0972 8.14298L11.0287 8.34839L10.8122 8.35003C10.7842 8.35021 10.7726 8.38603 10.7951 8.40267L10.9692 8.53129L10.9039 8.73773C10.8955 8.76445 10.9259 8.78657 10.9487 8.77026L11.1249 8.64436L11.301 8.77026C11.3238 8.78657 11.3542 8.76445 11.3458 8.73773L11.2805 8.53129L11.4546 8.40267C11.4772 8.38603 11.4656 8.35021 11.4375 8.35003L11.221 8.34839L11.1525 8.14298C11.1437 8.1164 11.1061 8.1164 11.0972 8.14298Z" fill="#F5F5F5"/>
<path d="M12.6226 8.14298L12.5541 8.34839L12.3376 8.35003C12.3096 8.35021 12.2979 8.38603 12.3205 8.40267L12.4947 8.53129L12.4293 8.73773C12.4209 8.76445 12.4513 8.78657 12.4741 8.77026L12.6503 8.64436L12.8265 8.77026C12.8493 8.78657 12.8797 8.76445 12.8713 8.73773L12.8059 8.53129L12.9801 8.40267C13.0027 8.38603 12.991 8.35021 12.963 8.35003L12.7465 8.34839L12.678 8.14298C12.6691 8.1164 12.6315 8.1164 12.6226 8.14298Z" fill="#F5F5F5"/>
<path d="M11.0972 5.29557L11.0287 5.50097L10.8122 5.50262C10.7842 5.5028 10.7726 5.53862 10.7951 5.55526L10.9692 5.68388L10.9039 5.89032C10.8955 5.91704 10.9259 5.93916 10.9487 5.92285L11.1249 5.79694L11.301 5.92285C11.3238 5.93916 11.3542 5.91704 11.3458 5.89032L11.2805 5.68388L11.4546 5.55526C11.4772 5.53862 11.4656 5.5028 11.4375 5.50262L11.221 5.50097L11.1525 5.29557C11.1437 5.26899 11.1061 5.26899 11.0972 5.29557Z" fill="#F5F5F5"/>
<path d="M12.6226 5.29557L12.5541 5.50097L12.3376 5.50262C12.3096 5.5028 12.2979 5.53862 12.3205 5.55526L12.4947 5.68388L12.4293 5.89032C12.4209 5.91704 12.4513 5.93916 12.4741 5.92285L12.6503 5.79694L12.8265 5.92285C12.8493 5.93916 12.8797 5.91704 12.8713 5.89032L12.8059 5.68388L12.9801 5.55526C13.0027 5.53862 12.991 5.5028 12.963 5.50262L12.7465 5.50097L12.678 5.29557C12.6691 5.26899 12.6315 5.26899 12.6226 5.29557Z" fill="#F5F5F5"/>
</svg>
