<svg width="64" height="64" viewBox="0 0 64 64" fill="none" xmlns="http://www.w3.org/2000/svg">
<rect width="64" height="64" rx="32" fill="#FAF1E3"/>
<path d="M24.3183 27.5202C23.9428 27.4076 23.7926 26.9194 24.0554 26.619C26.2709 23.8027 29.763 22.2256 33.3679 22.4134C31.3777 23.5023 29.4627 25.868 28.1484 28.9471L24.3183 27.5202ZM29.2749 29.3226C30.9646 25.53 33.5932 22.9015 35.7711 22.9015C36.0716 22.9015 36.3719 22.9766 36.6348 23.0517C38.9253 23.9154 39.5637 28.0459 38.2495 32.5895L29.2749 29.3226ZM39.5637 24.6664C42.4551 26.8443 44.1073 30.2989 43.9946 33.8662C43.9946 34.2793 43.5815 34.5421 43.206 34.4295L39.3384 33.0026C40.0143 30.7871 40.2772 28.6092 40.0519 26.7317C39.9767 25.9807 39.789 25.2672 39.5637 24.6664ZM39.8265 39.1983C40.8028 39.1983 41.629 40.0245 41.629 41.0383C41.629 41.3388 41.3286 41.6016 41.0282 41.6016H20.6008C20.2629 41.6016 20 41.3388 20 41.0008C20 40.0245 20.7886 39.1983 21.8024 39.2359H29.4627L32.2038 31.6883L34.4944 32.5144L32.0537 39.1983H39.8265Z" fill="#FF9500"/>
</svg>
